<?xml version="1.0" encoding="UTF-8"?>
<svg version="1.1" xmlns="http://www.w3.org/2000/svg" width="456" height="456">
<path d="M0 0 C0.84871304 -0.00170885 1.69742608 -0.0034177 2.57185769 -0.00517833 C5.42016263 -0.00847666 8.26823281 0.00253615 11.11651611 0.01345825 C13.156489 0.01402229 15.19646229 0.01370595 17.23643494 0.01257324 C22.77944516 0.01199845 28.32236916 0.02377332 33.86535931 0.03772116 C39.65628817 0.05020736 45.44721893 0.05139735 51.23815918 0.05377197 C62.20637014 0.05999295 73.17454133 0.07641213 84.14273477 0.09647095 C96.62867873 0.11881073 109.11462458 0.12981855 121.60058355 0.13986182 C147.28723158 0.16077781 172.97384428 0.1959658 198.66046143 0.24050903 C198.66046143 0.90050903 198.66046143 1.56050903 198.66046143 2.24050903 C198.00046143 2.24050903 197.34046143 2.24050903 196.66046143 2.24050903 C196.39620361 2.84379028 196.1319458 3.44707153 195.85968018 4.06863403 C194.60291069 6.34473773 193.5060598 7.40869336 191.47296143 8.99050903 C187.9108342 11.89684715 185.04750716 15.14970257 182.14093018 18.70144653 C181.65237549 19.20933716 181.1638208 19.71722778 180.66046143 20.24050903 C180.00046143 20.24050903 179.34046143 20.24050903 178.66046143 20.24050903 C178.33046143 21.23050903 178.00046143 22.22050903 177.66046143 23.24050903 C176.13580322 24.743927 176.13580322 24.743927 174.17218018 26.35769653 C169.34934391 30.45038658 164.91913497 34.87088598 160.47296143 39.36550903 C159.69243408 40.1505481 158.91190674 40.93558716 158.10772705 41.74441528 C156.65512611 43.20564065 155.20356617 44.6679023 153.753479 46.13162231 C151.39541589 48.50756413 149.02748067 50.87348979 146.66046143 53.24050903 C145.09065276 54.81743917 143.52189933 56.39541468 141.95318604 57.97343445 C139.50232321 60.43776284 137.04872711 62.89936266 134.59503174 65.36087036 C133.30442271 66.65652846 132.0147098 67.9530798 130.72589111 69.2505188 C128.85229292 71.13628632 126.97544796 73.01876996 125.09796143 74.90066528 C124.5269873 75.47680069 123.95601318 76.0529361 123.36773682 76.64653015 C120.27473546 79.7399609 117.09651741 82.5234599 113.66046143 85.24050903 C113.06233643 86.00363403 112.46421143 86.76675903 111.84796143 87.55300903 C110.00133903 89.82171654 108.31038087 91.46778274 106.09796143 93.33816528 C101.33122 97.46301214 96.90424572 101.88593748 92.47296143 106.36550903 C91.69243408 107.1505481 90.91190674 107.93558716 90.10772705 108.74441528 C88.60916105 110.25187862 87.1116285 111.76037025 85.61529541 113.27005005 C84.03835703 114.8595929 82.45576119 116.44352201 80.87139893 118.02566528 C79.40064157 119.49902115 77.94087519 120.9834332 76.49249268 122.47879028 C75.49282471 123.50552856 75.49282471 123.50552856 74.47296143 124.55300903 C73.79878174 125.25039185 73.12460205 125.94777466 72.42999268 126.66629028 C70.66046143 128.24050903 70.66046143 128.24050903 68.66046143 128.24050903 C68.45421143 128.79738403 68.24796143 129.35425903 68.03546143 129.92800903 C66.48904565 132.5287992 64.5886258 134.0883539 62.23858643 135.95925903 C58.83905856 138.71927175 55.97842179 141.8491732 53.22296143 145.24050903 C50.59866381 148.31285746 47.76351143 150.66563775 44.66046143 153.24050903 C43.54671143 154.63269653 43.54671143 154.63269653 42.41046143 156.05300903 C41.83296143 156.77488403 41.25546143 157.49675903 40.66046143 158.24050903 C40.00046143 158.24050903 39.34046143 158.24050903 38.66046143 158.24050903 C38.66046143 158.90050903 38.66046143 159.56050903 38.66046143 160.24050903 C36.67785717 161.92783181 34.67722722 163.59416961 32.66046143 165.24050903 C32.33046143 165.90050903 32.00046143 166.56050903 31.66046143 167.24050903 C32.98046143 166.91050903 34.30046143 166.58050903 35.66046143 166.24050903 C35.66046143 165.58050903 35.66046143 164.92050903 35.66046143 164.24050903 C37.32525635 162.76004028 37.32525635 162.76004028 39.64093018 161.05300903 C40.47559814 160.43683716 41.31026611 159.82066528 42.17022705 159.18582153 C43.05387939 158.54386841 43.93753174 157.90191528 44.84796143 157.24050903 C45.71227783 156.59855591 46.57659424 155.95660278 47.46710205 155.29519653 C51.45018966 152.3773178 54.990017 149.93303557 59.66046143 148.24050903 C59.66046143 147.58050903 59.66046143 146.92050903 59.66046143 146.24050903 C61.54718018 144.63894653 61.54718018 144.63894653 64.34796143 142.61550903 C65.44653514 141.81207453 66.54411016 141.00727348 67.64093018 140.20144653 C68.26789795 139.74221802 68.89486572 139.2829895 69.54083252 138.80984497 C73.78383006 135.66840427 77.96646062 132.4468771 82.16046143 129.24050903 C88.54810423 124.36624279 94.9480216 119.5115422 101.38702393 114.70535278 C104.1245486 112.65265455 106.84228345 110.57469255 109.55889893 108.49441528 C118.44458382 101.69182723 127.34025589 94.94269071 136.49249268 88.50222778 C140.85207286 85.38977781 145.09405567 82.13273167 149.33233643 78.85769653 C151.66046143 77.24050903 151.66046143 77.24050903 153.66046143 77.24050903 C153.66046143 76.58050903 153.66046143 75.92050903 153.66046143 75.24050903 C154.98046143 74.91050903 156.30046143 74.58050903 157.66046143 74.24050903 C157.66046143 73.58050903 157.66046143 72.92050903 157.66046143 72.24050903 C158.98046143 71.91050903 160.30046143 71.58050903 161.66046143 71.24050903 C161.66046143 70.58050903 161.66046143 69.92050903 161.66046143 69.24050903 C162.98046143 68.91050903 164.30046143 68.58050903 165.66046143 68.24050903 C165.66046143 67.58050903 165.66046143 66.92050903 165.66046143 66.24050903 C166.98046143 65.91050903 168.30046143 65.58050903 169.66046143 65.24050903 C169.66046143 64.58050903 169.66046143 63.92050903 169.66046143 63.24050903 C170.98046143 62.91050903 172.30046143 62.58050903 173.66046143 62.24050903 C173.66046143 61.58050903 173.66046143 60.92050903 173.66046143 60.24050903 C174.98046143 59.91050903 176.30046143 59.58050903 177.66046143 59.24050903 C177.66046143 58.58050903 177.66046143 57.92050903 177.66046143 57.24050903 C179.24932861 55.8677063 179.24932861 55.8677063 181.45733643 54.30691528 C182.25139893 53.74037231 183.04546143 53.17382935 183.86358643 52.59011841 C185.12428955 51.70549927 185.12428955 51.70549927 186.41046143 50.80300903 C188.05121129 49.63782026 189.69184032 48.47246131 191.33233643 47.30691528 C192.06549072 46.79072632 192.79864502 46.27453735 193.55401611 45.7427063 C194.99723917 44.71348151 196.41398213 43.64638694 197.80596924 42.54885864 C199.66046143 41.24050903 199.66046143 41.24050903 201.66046143 41.24050903 C201.66046143 40.58050903 201.66046143 39.92050903 201.66046143 39.24050903 C203.24688721 38.02493286 203.24688721 38.02493286 205.48077393 36.63504028 C212.07460064 32.38508264 218.1827049 27.53493887 224.37139893 22.72293091 C225.26858643 22.03134888 226.16577393 21.33976685 227.09014893 20.62722778 C227.89694092 20.00034058 228.70373291 19.37345337 229.53497314 18.72756958 C231.66046143 17.24050903 231.66046143 17.24050903 234.66046143 16.24050903 C234.66046143 15.58050903 234.66046143 14.92050903 234.66046143 14.24050903 C235.98046143 13.91050903 237.30046143 13.58050903 238.66046143 13.24050903 C238.66046143 12.58050903 238.66046143 11.92050903 238.66046143 11.24050903 C239.98046143 10.91050903 241.30046143 10.58050903 242.66046143 10.24050903 C242.66046143 9.58050903 242.66046143 8.92050903 242.66046143 8.24050903 C248.07222613 4.24050903 248.07222613 4.24050903 250.66046143 4.24050903 C250.66046143 3.58050903 250.66046143 2.92050903 250.66046143 2.24050903 C254.16688849 -0.09710901 255.54902092 -0.00335077 259.69244385 0.01345825 C261.55403389 0.01368484 261.55403389 0.01368484 263.45323181 0.01391602 C264.80746623 0.02412923 266.16169901 0.03456122 267.51593018 0.04519653 C268.90169572 0.04892736 270.28746391 0.05177401 271.67323303 0.05377197 C275.31799623 0.06140295 278.96259967 0.08104673 282.6072998 0.10317993 C286.32747232 0.12364995 290.04767068 0.13277616 293.7678833 0.14285278 C301.06548212 0.16429323 308.36294938 0.19842259 315.66046143 0.24050903 C315.72381012 1.83618515 315.76896737 3.43259028 315.80645752 5.02908325 C315.83355804 5.91796234 315.86065857 6.80684143 315.88858032 7.72265625 C315.51530485 11.84266872 313.31082448 13.77882362 310.28546143 16.36550903 C309.7775708 16.84504028 309.26968018 17.32457153 308.74639893 17.81863403 C305.03122035 21.24050903 305.03122035 21.24050903 302.66046143 21.24050903 C302.35108643 22.07582153 302.35108643 22.07582153 302.03546143 22.92800903 C300.15006054 26.09891052 297.50686784 27.92780382 294.66046143 30.24050903 C294.00046143 31.23050903 293.34046143 32.22050903 292.66046143 33.24050903 C292.00046143 33.24050903 291.34046143 33.24050903 290.66046143 33.24050903 C290.66046143 33.90050903 290.66046143 34.56050903 290.66046143 35.24050903 C289.28546143 36.86550903 289.28546143 36.86550903 287.66046143 38.24050903 C287.00046143 38.24050903 286.34046143 38.24050903 285.66046143 38.24050903 C285.33046143 39.23050903 285.00046143 40.22050903 284.66046143 41.24050903 C282.72296143 43.42800903 282.72296143 43.42800903 280.66046143 45.24050903 C280.00046143 45.24050903 279.34046143 45.24050903 278.66046143 45.24050903 C278.33046143 46.23050903 278.00046143 47.22050903 277.66046143 48.24050903 C277.00046143 48.24050903 276.34046143 48.24050903 275.66046143 48.24050903 C275.66046143 48.90050903 275.66046143 49.56050903 275.66046143 50.24050903 C273.99379476 51.57384237 272.32712809 52.9071757 270.66046143 54.24050903 C269.44636765 55.7102015 268.23322374 57.18088828 267.04327393 58.67019653 C265.53427941 60.38380048 263.91939352 61.78615393 262.16046143 63.24050903 C259.86120069 65.14419803 258.15692083 66.84734 256.22296143 69.17800903 C253.61773087 72.29157726 250.85518283 74.75652021 247.77764893 77.38113403 C244.23300436 80.49414291 240.96236873 83.87427886 237.66046143 87.24050903 C235.99379476 88.9071757 234.32712809 90.57384237 232.66046143 92.24050903 C232.11647705 92.79609497 231.57249268 93.35168091 231.01202393 93.92410278 C228.2015015 96.77758079 225.39512377 99.52501015 222.28546143 102.05300903 C219.62884923 103.96971774 219.62884923 103.96971774 218.66046143 106.24050903 C218.00046143 106.24050903 217.34046143 106.24050903 216.66046143 106.24050903 C216.66046143 106.90050903 216.66046143 107.56050903 216.66046143 108.24050903 C215.15655518 109.68582153 215.15655518 109.68582153 213.09796143 111.36550903 C210.18785979 113.83065664 207.61727116 116.32411133 205.16046143 119.24050903 C202.9164708 121.89789297 200.6249375 124.22454982 197.96514893 126.46316528 C192.72440206 130.98333963 187.95088919 135.93276356 183.13311768 140.89480591 C182.45378174 141.58509888 181.7744458 142.27539185 181.07452393 142.98660278 C180.46560303 143.61236206 179.85668213 144.23812134 179.22930908 144.88284302 C177.66046143 146.24050903 177.66046143 146.24050903 175.66046143 146.24050903 C175.33046143 147.23050903 175.00046143 148.22050903 174.66046143 149.24050903 C174.00046143 149.24050903 173.34046143 149.24050903 172.66046143 149.24050903 C172.41296143 149.85925903 172.16546143 150.47800903 171.91046143 151.11550903 C170.4327538 153.62761199 169.22090966 154.00158247 166.66046143 155.24050903 C166.33046143 156.23050903 166.00046143 157.22050903 165.66046143 158.24050903 C165.00046143 158.24050903 164.34046143 158.24050903 163.66046143 158.24050903 C163.33046143 159.23050903 163.00046143 160.22050903 162.66046143 161.24050903 C159.68477043 164.49517106 156.41552125 167.33832737 153.09796143 170.24050903 C149.90444403 173.04996256 147.29679696 175.90115069 144.66046143 179.24050903 C142.35046143 181.22050903 140.04046143 183.20050903 137.66046143 185.24050903 C208.44546143 185.73550903 208.44546143 185.73550903 280.66046143 186.24050903 C281.8379318 188.59544979 281.78724777 190.00188142 281.78985596 192.6267395 C281.79300812 193.53463226 281.79616028 194.44252502 281.79940796 195.37792969 C281.79637161 196.85291428 281.79637161 196.85291428 281.79327393 198.35769653 C281.79470901 199.87074875 281.79470901 199.87074875 281.7961731 201.41436768 C281.7968545 203.55123965 281.79500296 205.68811368 281.79083252 207.82498169 C281.78549482 211.09504869 281.79077312 214.36497764 281.79718018 217.63504028 C281.79651917 219.70925934 281.79523754 221.7834783 281.79327393 223.85769653 C281.79529816 224.83697113 281.79732239 225.81624573 281.79940796 226.82519531 C281.7962558 227.7393924 281.79310364 228.65358948 281.78985596 229.5954895 C281.78866257 230.79889481 281.78866257 230.79889481 281.78744507 232.02661133 C281.66046143 234.24050903 281.66046143 234.24050903 280.66046143 238.24050903 C220.93046143 238.24050903 161.20046143 238.24050903 99.66046143 238.24050903 C99.99046143 254.41050903 100.32046143 270.58050903 100.66046143 287.24050903 C147.52046143 287.24050903 194.38046143 287.24050903 242.66046143 287.24050903 C242.66046143 287.90050903 242.66046143 288.56050903 242.66046143 289.24050903 C245.63046143 289.57050903 248.60046143 289.90050903 251.66046143 290.24050903 C251.66046143 290.90050903 251.66046143 291.56050903 251.66046143 292.24050903 C253.64046143 292.57050903 255.62046143 292.90050903 257.66046143 293.24050903 C257.66046143 293.90050903 257.66046143 294.56050903 257.66046143 295.24050903 C258.46483643 295.58082153 258.46483643 295.58082153 259.28546143 295.92800903 C262.48506304 297.69620993 264.95083366 299.77721106 267.66046143 302.24050903 C267.66046143 302.90050903 267.66046143 303.56050903 267.66046143 304.24050903 C268.32046143 304.24050903 268.98046143 304.24050903 269.66046143 304.24050903 C271.66046143 307.24050903 271.66046143 307.24050903 271.66046143 310.24050903 C272.32046143 310.24050903 272.98046143 310.24050903 273.66046143 310.24050903 C273.78421143 311.04488403 273.90796143 311.84925903 274.03546143 312.67800903 C274.24171143 313.52363403 274.44796143 314.36925903 274.66046143 315.24050903 C275.32046143 315.57050903 275.98046143 315.90050903 276.66046143 316.24050903 C277.47686768 318.49050903 277.47686768 318.49050903 278.22296143 321.24050903 C278.92537035 324.52304269 278.92537035 324.52304269 280.66046143 327.24050903 C281.84424237 334.19613469 281.80541188 341.09839008 281.79327393 348.13894653 C281.79470901 349.9841539 281.79470901 349.9841539 281.7961731 351.86663818 C281.79685148 354.46033784 281.7950211 357.05403923 281.79083252 359.6477356 C281.78548869 363.59536601 281.79078447 367.54288218 281.79718018 371.49050903 C281.79651915 374.01915512 281.7952375 376.54780113 281.79327393 379.07644653 C281.79529816 380.24654266 281.79732239 381.41663879 281.79940796 382.62219238 C281.78073924 389.22346189 281.47382434 395.68780697 280.66046143 402.24050903 C280.00046143 402.24050903 279.34046143 402.24050903 278.66046143 402.24050903 C278.59858643 403.53988403 278.53671143 404.83925903 278.47296143 406.17800903 C277.86512939 411.70059724 275.6073443 415.61846358 272.66046143 420.24050903 C272.06233643 421.27175903 271.46421143 422.30300903 270.84796143 423.36550903 C266.25139153 429.40671518 260.45465938 433.91001984 253.66046143 437.24050903 C252.67046143 437.24050903 251.68046143 437.24050903 250.66046143 437.24050903 C250.66046143 437.90050903 250.66046143 438.56050903 250.66046143 439.24050903 C248.30698476 439.55904793 245.95285865 439.87027918 243.59796143 440.17800903 C242.96052002 440.26502075 242.32307861 440.35203247 241.6663208 440.44168091 C228.74126126 442.11142544 215.82069811 442.38624222 202.81109619 442.35403442 C201.18328859 442.35375152 199.55548087 442.35391229 197.92767334 442.35447693 C193.55885474 442.35476089 189.19006425 442.34892974 184.82125211 442.34190297 C180.2368899 442.33560194 175.65252688 442.33506034 171.06816101 442.33387756 C162.40945041 442.33078398 153.75075262 442.32259749 145.09204763 442.31252807 C135.22490016 442.30130528 125.35775203 442.29584102 115.49059975 442.29083264 C95.21387986 442.28041299 74.93717145 442.2628522 54.66046143 442.24050903 C54.66046143 441.58050903 54.66046143 440.92050903 54.66046143 440.24050903 C54.00046143 440.24050903 53.34046143 440.24050903 52.66046143 440.24050903 C52.33046143 432.32050903 52.00046143 424.40050903 51.66046143 416.24050903 C50.34046143 417.89050903 49.02046143 419.54050903 47.66046143 421.24050903 C47.00046143 421.24050903 46.34046143 421.24050903 45.66046143 421.24050903 C45.33755127 422.240177 45.33755127 422.240177 45.00811768 423.26004028 C43.21200019 427.23232329 40.72152239 430.46463982 38.09796143 433.92800903 C37.09541356 435.26431489 36.09405415 436.60151344 35.09405518 437.93972778 C34.42974487 438.81890869 34.42974487 438.81890869 33.75201416 439.71585083 C32.58327948 441.26400717 32.58327948 441.26400717 31.66046143 443.24050903 C31.00046143 443.24050903 30.34046143 443.24050903 29.66046143 443.24050903 C29.45421143 443.90050903 29.24796143 444.56050903 29.03546143 445.24050903 C28.58171143 446.23050903 28.12796143 447.22050903 27.66046143 448.24050903 C27.36345526 448.90415215 27.06644909 449.56779526 26.76044273 450.25154877 C25.29012075 452.81900008 24.01051856 454.41892235 21.66046143 456.24050903 C16.49622006 457.43633665 11.37230561 457.25261459 6.10821533 457.14871216 C4.51129266 457.14645426 2.91436169 457.1477248 1.31744385 457.1522522 C-3.00923987 457.15454494 -7.33414451 457.107559 -11.66041517 457.05166054 C-16.18468133 457.00160344 -20.70898964 456.9969471 -25.23348999 456.98745728 C-33.79726389 456.96260563 -42.36021946 456.89697532 -50.92363322 456.81666136 C-60.67437789 456.72719959 -70.42516193 456.68324562 -80.17621493 456.64309788 C-100.23111266 456.55950763 -120.28527404 456.41882071 -140.33953857 456.24050903 C-140.43113283 420.23082924 -140.50159696 384.22116991 -140.54379989 348.21139757 C-140.5488026 343.95824312 -140.5539799 339.70508891 -140.55926514 335.45193481 C-140.56031438 334.60522332 -140.56136362 333.75851183 -140.56244466 332.88614242 C-140.57984068 319.18382627 -140.61137394 305.48157739 -140.64814976 291.77930112 C-140.68558153 277.71512269 -140.70777915 263.65097945 -140.71589255 249.58675325 C-140.72137569 240.91127544 -140.73868155 232.23598777 -140.77120444 223.5605685 C-140.79237995 217.60812533 -140.79873176 211.65578018 -140.79354408 205.7033021 C-140.790987 202.2711313 -140.79485292 198.8392923 -140.81636047 195.40718079 C-140.83630061 191.67945464 -140.83146189 187.95253788 -140.82055664 184.22479248 C-140.83220801 183.14889158 -140.84385937 182.07299068 -140.85586381 180.96448672 C-140.80002888 173.88927958 -139.30161015 168.6248364 -136.33953857 162.24050903 C-135.7425475 160.70407955 -135.15817357 159.16265742 -134.58953857 157.61550903 C-134.17703857 156.50175903 -133.76453857 155.38800903 -133.33953857 154.24050903 C-132.67953857 154.24050903 -132.01953857 154.24050903 -131.33953857 154.24050903 C-131.25703857 153.41550903 -131.17453857 152.59050903 -131.08953857 151.74050903 C-130.30497149 148.07919597 -129.03240198 145.34448604 -127.27703857 142.07254028 C-126.20790947 140.09671971 -126.20790947 140.09671971 -125.33953857 137.24050903 C-124.67953857 137.24050903 -124.01953857 137.24050903 -123.33953857 137.24050903 C-123.19516357 136.47738403 -123.05078857 135.71425903 -122.90203857 134.92800903 C-122.33953857 132.24050903 -122.33953857 132.24050903 -121.33953857 129.24050903 C-120.67953857 129.24050903 -120.01953857 129.24050903 -119.33953857 129.24050903 C-118.67953857 126.93050903 -118.01953857 124.62050903 -117.33953857 122.24050903 C-116.67953857 122.24050903 -116.01953857 122.24050903 -115.33953857 122.24050903 C-114.93735107 120.91019653 -114.93735107 120.91019653 -114.52703857 119.55300903 C-113.41447508 116.44954243 -112.2375808 113.92940218 -110.33953857 111.24050903 C-109.67953857 111.24050903 -109.01953857 111.24050903 -108.33953857 111.24050903 C-108.03016357 110.29175903 -107.72078857 109.34300903 -107.40203857 108.36550903 C-106.33953857 105.24050903 -106.33953857 105.24050903 -105.33953857 103.24050903 C-104.67953857 103.24050903 -104.01953857 103.24050903 -103.33953857 103.24050903 C-103.06110107 102.06488403 -103.06110107 102.06488403 -102.77703857 100.86550903 C-101.05806779 96.53071313 -98.63338253 93.16553401 -95.89813232 89.41238403 C-94.32150689 87.33623185 -94.32150689 87.33623185 -93.33953857 85.24050903 C-92.67953857 85.24050903 -92.01953857 85.24050903 -91.33953857 85.24050903 C-91.07785889 84.67847778 -90.8161792 84.11644653 -90.54656982 83.53738403 C-84.94044868 72.86942534 -76.00374386 63.47552048 -68.33953857 54.24050903 C-67.79072021 53.56697388 -67.24190186 52.89343872 -66.67645264 52.19949341 C-66.14503662 51.55818481 -65.61362061 50.91687622 -65.06610107 50.25613403 C-64.58995361 49.67637817 -64.11380615 49.09662231 -63.62322998 48.4992981 C-62.33953857 47.24050903 -62.33953857 47.24050903 -60.33953857 47.24050903 C-60.03016357 46.44386841 -60.03016357 46.44386841 -59.71453857 45.63113403 C-57.75992665 42.23277467 -55.11830141 39.72994975 -52.33953857 36.99050903 C-51.79297607 36.43621216 -51.24641357 35.88191528 -50.68328857 35.31082153 C-46.59292527 31.24050903 -46.59292527 31.24050903 -44.33953857 31.24050903 C-44.11137451 30.6642981 -43.88321045 30.08808716 -43.64813232 29.49441528 C-41.99275915 26.6432203 -40.01826258 25.17187138 -37.40203857 23.17800903 C-33.87946585 20.50026062 -33.87946585 20.50026062 -30.64813232 17.49441528 C-29.33953857 16.24050903 -29.33953857 16.24050903 -27.33953857 16.24050903 C-27.33953857 15.58050903 -27.33953857 14.92050903 -27.33953857 14.24050903 C-22.86895034 10.24050903 -22.86895034 10.24050903 -20.33953857 10.24050903 C-20.33953857 9.58050903 -20.33953857 8.92050903 -20.33953857 8.24050903 C-14.92777387 4.24050903 -14.92777387 4.24050903 -12.33953857 4.24050903 C-12.33953857 3.58050903 -12.33953857 2.92050903 -12.33953857 2.24050903 C-8.48014259 -0.33011353 -4.4592429 -0.03272733 0 0 Z M29.66046143 167.24050903 C29.99046143 167.90050903 30.32046143 168.56050903 30.66046143 169.24050903 C30.99046143 168.58050903 31.32046143 167.92050903 31.66046143 167.24050903 C31.00046143 167.24050903 30.34046143 167.24050903 29.66046143 167.24050903 Z M49.09796143 271.61550903 C46.43364439 273.88774312 46.43364439 273.88774312 46.66046143 276.24050903 C45.67046143 276.57050903 44.68046143 276.90050903 43.66046143 277.24050903 C41.94682934 278.85884788 40.28852071 280.53610928 38.66046143 282.24050903 C37.64859875 283.2624013 36.63423926 284.28182571 35.61773682 285.29910278 C35.07689957 285.84316772 34.53606232 286.38723267 33.97883606 286.94778442 C31.537744 289.40236246 29.09390135 291.85419464 26.64996338 294.30593872 C25.36618677 295.5947574 24.08330729 296.88447033 22.80133057 298.17507935 C20.93515348 300.05345679 19.06570223 301.92852274 17.19561768 303.80300903 C16.62980484 304.37398315 16.063992 304.94495728 15.48103333 305.53323364 C12.83476447 308.17986992 10.1741523 310.67650664 7.25201416 313.01785278 C5.96919556 314.11806763 5.96919556 314.11806763 4.66046143 315.24050903 C4.66046143 315.90050903 4.66046143 316.56050903 4.66046143 317.24050903 C4.00046143 317.24050903 3.34046143 317.24050903 2.66046143 317.24050903 C2.66046143 317.90050903 2.66046143 318.56050903 2.66046143 319.24050903 C1.17546143 319.73550903 1.17546143 319.73550903 -0.33953857 320.24050903 C-0.33953857 320.90050903 -0.33953857 321.56050903 -0.33953857 322.24050903 C-2.31953857 323.23050903 -2.31953857 323.23050903 -4.33953857 324.24050903 C-4.33953857 324.90050903 -4.33953857 325.56050903 -4.33953857 326.24050903 C-4.92291992 326.4971936 -5.50630127 326.75387817 -6.10736084 327.01834106 C-8.54290786 328.35185833 -10.12063505 329.80872217 -12.05438232 331.79519653 C-12.74080811 332.49257935 -13.42723389 333.18996216 -14.13446045 333.90847778 C-14.84151123 334.6367981 -15.54856201 335.36511841 -16.27703857 336.11550903 C-20.47570567 340.41808448 -24.58309472 344.5459281 -29.33953857 348.24050903 C-29.97891357 349.04488403 -30.61828857 349.84925903 -31.27703857 350.67800903 C-32.9959889 352.81367459 -34.47757297 354.24635024 -36.58953857 355.92800903 C-37.49703857 356.69113403 -38.40453857 357.45425903 -39.33953857 358.24050903 C-39.33953857 358.90050903 -39.33953857 359.56050903 -39.33953857 360.24050903 C-39.99953857 360.24050903 -40.65953857 360.24050903 -41.33953857 360.24050903 C-42.20578857 361.32332153 -42.20578857 361.32332153 -43.08953857 362.42800903 C-44.89711719 364.68748231 -46.36961561 366.1688248 -48.58953857 367.92800903 C-49.49703857 368.69113403 -50.40453857 369.45425903 -51.33953857 370.24050903 C-51.33953857 370.90050903 -51.33953857 371.56050903 -51.33953857 372.24050903 C-52.32953857 372.57050903 -53.31953857 372.90050903 -54.33953857 373.24050903 C-56.05242863 374.96816068 -56.05242863 374.96816068 -57.71453857 377.05300903 C-60.38458649 380.20902802 -63.11022399 382.65705737 -66.33953857 385.24050903 C-67.52473735 386.55739656 -68.68980573 387.89254639 -69.83953857 389.24050903 C-72.46529553 392.3189827 -75.17819515 394.71143429 -78.33953857 397.24050903 C-80.15085357 399.21534552 -81.89317144 401.24061957 -83.63641357 403.27566528 C-86.61964665 406.71733097 -89.54780973 409.7126898 -93.33953857 412.24050903 C-93.33953857 412.90050903 -93.33953857 413.56050903 -93.33953857 414.24050903 C-92.62410889 414.0974231 -91.9086792 413.95433716 -91.17156982 413.80691528 C-89.76971436 413.52654419 -89.76971436 413.52654419 -88.33953857 413.24050903 C-87.01502686 412.97560669 -87.01502686 412.97560669 -85.66375732 412.70535278 C-83.22235107 412.21707153 -80.78094482 411.72879028 -78.33953857 411.24050903 C-78.33953857 410.58050903 -78.33953857 409.92050903 -78.33953857 409.24050903 C-75.03953857 408.91050903 -71.73953857 408.58050903 -68.33953857 408.24050903 C-68.33953857 407.58050903 -68.33953857 406.92050903 -68.33953857 406.24050903 C-65.03953857 405.91050903 -61.73953857 405.58050903 -58.33953857 405.24050903 C-58.33953857 404.58050903 -58.33953857 403.92050903 -58.33953857 403.24050903 C-55.36953857 402.91050903 -52.39953857 402.58050903 -49.33953857 402.24050903 C-49.33953857 401.58050903 -49.33953857 400.92050903 -49.33953857 400.24050903 C-45.70953857 399.91050903 -42.07953857 399.58050903 -38.33953857 399.24050903 C-38.33953857 398.58050903 -38.33953857 397.92050903 -38.33953857 397.24050903 C-33.38953857 396.74550903 -33.38953857 396.74550903 -28.33953857 396.24050903 C-28.33953857 395.58050903 -28.33953857 394.92050903 -28.33953857 394.24050903 C-23.38953857 393.74550903 -23.38953857 393.74550903 -18.33953857 393.24050903 C-18.33953857 392.58050903 -18.33953857 391.92050903 -18.33953857 391.24050903 C-17.59188232 391.19152466 -16.84422607 391.14254028 -16.07391357 391.09207153 C-14.59664795 390.9799231 -14.59664795 390.9799231 -13.08953857 390.86550903 C-12.11500732 390.79589966 -11.14047607 390.72629028 -10.13641357 390.65457153 C-7.41281298 390.25135692 -5.72176546 389.55484111 -3.33953857 388.24050903 C-1.68213142 387.86382559 -0.01608586 387.51993358 1.66046143 387.24050903 C1.66046143 386.58050903 1.66046143 385.92050903 1.66046143 385.24050903 C2.31272705 385.19152466 2.96499268 385.14254028 3.63702393 385.09207153 C4.5110083 385.01730591 5.38499268 384.94254028 6.28546143 384.86550903 C7.14397705 384.79589966 8.00249268 384.72629028 8.88702393 384.65457153 C11.99031161 384.1912638 14.70102936 383.27818331 17.66046143 382.24050903 C19.90708474 381.58302567 22.15728475 380.93767079 24.41046143 380.30300903 C35.19144375 377.25365101 35.19144375 377.25365101 45.84796143 373.80300903 C52.34716506 371.59750311 59.02099314 369.96379659 65.66046143 368.24050903 C65.66046143 367.58050903 65.66046143 366.92050903 65.66046143 366.24050903 C66.32432861 366.19152466 66.9881958 366.14254028 67.67218018 366.09207153 C72.38446848 365.69307486 76.33233141 365.2381075 80.66046143 363.24050903 C82.26007512 362.68554102 83.86471262 362.14493255 85.47296143 361.61550903 C86.65825439 361.2249231 86.65825439 361.2249231 87.86749268 360.82644653 C88.75501221 360.53640747 88.75501221 360.53640747 89.66046143 360.24050903 C88.91796143 361.66363403 88.91796143 361.66363403 88.16046143 363.11550903 C86.51621774 365.96329069 86.51621774 365.96329069 86.66046143 368.24050903 C86.00046143 368.24050903 85.34046143 368.24050903 84.66046143 368.24050903 C84.33046143 369.56050903 84.00046143 370.88050903 83.66046143 372.24050903 C83.00046143 372.24050903 82.34046143 372.24050903 81.66046143 372.24050903 C79.83941942 374.41509181 79.83941942 374.41509181 78.03546143 377.11550903 C77.4038208 378.02043091 76.77218018 378.92535278 76.12139893 379.85769653 C74.48623038 382.05884609 74.48623038 382.05884609 74.66046143 384.24050903 C74.00046143 384.24050903 73.34046143 384.24050903 72.66046143 384.24050903 C72.33046143 385.89050903 72.00046143 387.54050903 71.66046143 389.24050903 C125.12046143 389.24050903 178.58046143 389.24050903 233.66046143 389.24050903 C237.56081484 363.36254349 237.56081484 363.36254349 233.66046143 339.24050903 C232.56466467 339.23554381 232.56466467 339.23554381 231.44673061 339.23047829 C213.66058289 339.14921178 195.87452139 339.05710733 178.08849239 338.95298195 C169.48725597 338.90288801 160.88602892 338.85644473 152.284729 338.81863403 C144.78669896 338.78566392 137.28874238 338.74580501 129.79079348 338.69771898 C125.82172858 338.67250385 121.8527121 338.65070791 117.88358879 338.63716507 C114.14484692 338.62429936 110.40627151 338.6021967 106.66762161 338.57312584 C104.64723677 338.55978679 102.62679516 338.5561373 100.60636902 338.55281067 C94.57584873 338.49730356 89.33426684 338.34617145 83.66046143 336.24050903 C82.54671143 335.84863403 81.43296143 335.45675903 80.28546143 335.05300903 C71.38198923 331.04045766 63.34006829 323.47828239 59.46905518 314.46707153 C59.20221924 313.73230591 58.9353833 312.99754028 58.66046143 312.24050903 C58.00046143 312.24050903 57.34046143 312.24050903 56.66046143 312.24050903 C56.53671143 311.20925903 56.41296143 310.17800903 56.28546143 309.11550903 C55.80446665 305.36630103 55.80446665 305.36630103 54.64727783 302.44509888 C53.54794501 298.87512295 53.3420542 295.82262736 53.24639893 292.09207153 C53.2173497 291.10598404 53.2173497 291.10598404 53.18771362 290.09997559 C53.12843681 288.02194768 53.08174349 285.94386279 53.03546143 283.86550903 C52.99723364 282.44751753 52.95817919 281.02954807 52.91827393 279.61160278 C52.82277972 276.15477442 52.73855954 272.6977792 52.66046143 269.24050903 C51.20039044 269.12721492 51.20039044 269.12721492 49.09796143 271.61550903 Z " fill="#393735" transform="translate(140.33953857421875,-0.240509033203125)"/>
<path d="M0 0 C0.99 0.495 0.99 0.495 2 1 C1.01 1.99 0.02 2.98 -1 4 C69.785 4.495 69.785 4.495 142 5 C143.17747038 7.35494075 143.12678635 8.76137238 143.12939453 11.38623047 C143.13254669 12.29412323 143.13569885 13.20201599 143.13894653 14.13742065 C143.13591019 15.61240524 143.13591019 15.61240524 143.1328125 17.1171875 C143.13376923 18.12588898 143.13472595 19.13459045 143.13571167 20.17385864 C143.13639308 22.31073061 143.13454153 24.44760465 143.13037109 26.58447266 C143.1250334 29.85453966 143.13031169 33.12446861 143.13671875 36.39453125 C143.13605774 38.4687503 143.13477612 40.54296927 143.1328125 42.6171875 C143.13483673 43.5964621 143.13686096 44.57573669 143.13894653 45.58468628 C143.13421829 46.9559819 143.13421829 46.9559819 143.12939453 48.35498047 C143.12859894 49.15725067 143.12780334 49.95952087 143.12698364 50.78610229 C143 53 143 53 142 57 C82.27 57 22.54 57 -39 57 C-38.67 73.17 -38.34 89.34 -38 106 C8.86 106 55.72 106 104 106 C104 106.66 104 107.32 104 108 C106.97 108.33 109.94 108.66 113 109 C113 109.66 113 110.32 113 111 C115.97 111.495 115.97 111.495 119 112 C119 112.66 119 113.32 119 114 C119.53625 114.226875 120.0725 114.45375 120.625 114.6875 C123.82460161 116.45570089 126.29037223 118.53670203 129 121 C129 121.66 129 122.32 129 123 C129.66 123 130.32 123 131 123 C133 126 133 126 133 129 C133.66 129 134.32 129 135 129 C135.12375 129.804375 135.2475 130.60875 135.375 131.4375 C135.58125 132.283125 135.7875 133.12875 136 134 C136.66 134.33 137.32 134.66 138 135 C138.81640625 137.25 138.81640625 137.25 139.5625 140 C140.26490893 143.28253366 140.26490893 143.28253366 142 146 C143.18378094 152.95562566 143.14495045 159.85788104 143.1328125 166.8984375 C143.13376923 168.12857574 143.13472595 169.35871399 143.13571167 170.62612915 C143.13639005 173.21982881 143.13455967 175.8135302 143.13037109 178.40722656 C143.12502727 182.35485697 143.13032304 186.30237314 143.13671875 190.25 C143.13605773 192.77864608 143.13477607 195.30729209 143.1328125 197.8359375 C143.13483673 199.00603363 143.13686096 200.17612976 143.13894653 201.38168335 C143.12027782 207.98295285 142.81336291 214.44729794 142 221 C141.34 221 140.68 221 140 221 C139.938125 222.299375 139.87625 223.59875 139.8125 224.9375 C139.20466796 230.46008821 136.94688287 234.37795455 134 239 C133.401875 240.03125 132.80375 241.0625 132.1875 242.125 C127.59093011 248.16620615 121.79419796 252.66951081 115 256 C114.01 256 113.02 256 112 256 C112 256.66 112 257.32 112 258 C109.64652333 258.31853889 107.29239723 258.62977015 104.9375 258.9375 C104.30005859 259.02451172 103.66261719 259.11152344 103.00585938 259.20117188 C90.08079983 260.87091641 77.16023668 261.14573318 64.15063477 261.11352539 C62.52282717 261.11324249 60.89501944 261.11340326 59.26721191 261.1139679 C54.89839331 261.11425185 50.52960282 261.10842071 46.16079068 261.10139394 C41.57642848 261.09509291 36.99206545 261.09455131 32.40769958 261.09336853 C23.74898899 261.09027495 15.09029119 261.08208846 6.43158621 261.07201904 C-3.43556127 261.06079624 -13.30270939 261.05533199 -23.16986167 261.05032361 C-43.44658156 261.03990395 -63.72328997 261.02234317 -84 261 C-84 260.34 -84 259.68 -84 259 C-84.66 259 -85.32 259 -86 259 C-86.16729064 255.03092526 -86.32788226 251.06164279 -86.48217773 247.09204102 C-86.53565802 245.74072921 -86.59099194 244.38948948 -86.64819336 243.03833008 C-86.72993571 241.09997011 -86.80453323 239.16131296 -86.87890625 237.22265625 C-86.9260376 236.05484619 -86.97316895 234.88703613 -87.02172852 233.68383789 C-87 231 -87 231 -86 230 C-85.84285346 228.36743242 -85.74914586 226.72864662 -85.68359375 225.08984375 C-85.64169922 224.10048828 -85.59980469 223.11113281 -85.55664062 222.09179688 C-85.49766602 220.53041992 -85.49766602 220.53041992 -85.4375 218.9375 C-85.37272461 217.37032227 -85.37272461 217.37032227 -85.30664062 215.77148438 C-85.20018775 213.18113116 -85.0981724 210.59067814 -85 208 C-83.94039062 207.93941406 -82.88078125 207.87882813 -81.7890625 207.81640625 C-80.40102779 207.73199873 -79.01300768 207.64735083 -77.625 207.5625 C-76.92632812 207.52318359 -76.22765625 207.48386719 -75.5078125 207.44335938 C-71.62639508 207.25719866 -71.62639508 207.25719866 -68 206 C-68 206.66 -68 207.32 -68 208 C-67.34 207.67 -66.68 207.34 -66 207 C-63.89682128 206.90571826 -61.79056248 206.87809815 -59.68527222 206.87974548 C-58.70265638 206.87846385 -58.70265638 206.87846385 -57.70018971 206.87715632 C-55.49524879 206.87550329 -53.29038319 206.88101999 -51.08544922 206.88647461 C-49.5088196 206.88675655 -47.93218985 206.88659862 -46.3555603 206.8860321 C-42.06654789 206.88574438 -37.77756327 206.89163709 -33.48855734 206.89860606 C-29.00955438 206.90484374 -24.53055083 206.90544373 -20.05154419 206.90663147 C-11.56593886 206.90974356 -3.08034637 206.91795531 5.40525329 206.92798096 C15.06412261 206.93914588 24.72299253 206.9446535 34.38186669 206.94967639 C54.25458656 206.96013802 74.12728882 206.97848199 94 207 C94.33 190.83 94.66 174.66 95 158 C90.70476318 158.01047363 86.40952637 158.02094727 81.98413086 158.03173828 C67.79877425 158.06486555 53.61341613 158.08706659 39.42803097 158.10362434 C30.82675643 158.11393123 22.22551857 158.12798033 13.62426758 158.15087891 C6.12628882 158.17083077 -1.37166338 158.18372071 -8.86966795 158.18817699 C-12.83876964 158.19078132 -16.80779533 158.19689041 -20.77687263 158.21146011 C-24.51555657 158.22507241 -28.25413345 158.22921528 -31.99283981 158.22621536 C-34.01327126 158.2270247 -36.03369114 158.23776722 -38.05409241 158.24884033 C-44.09802893 158.2351397 -49.31534663 158.11626227 -55 156 C-56.6396875 155.443125 -56.6396875 155.443125 -58.3125 154.875 C-63.45111359 152.61072506 -67.94971134 148.83840233 -72 145 C-72 144.34 -72 143.68 -72 143 C-72.99 142.67 -73.98 142.34 -75 142 C-77.76591425 138.42058156 -79.46864683 135.51650194 -80 131 C-80.66 131 -81.32 131 -82 131 C-82.30744141 129.71802734 -82.30744141 129.71802734 -82.62109375 128.41015625 C-82.89050781 127.30542969 -83.15992188 126.20070313 -83.4375 125.0625 C-83.70433594 123.96035156 -83.97117188 122.85820312 -84.24609375 121.72265625 C-84.72995725 119.10578746 -84.72995725 119.10578746 -86 118 C-86.17117772 115.72216492 -86.27525348 113.43923301 -86.3515625 111.15625 C-86.37471527 110.47195923 -86.39786804 109.78766846 -86.42172241 109.0826416 C-86.46941301 107.63345891 -86.51464081 106.18419343 -86.55761719 104.73486328 C-86.62472475 102.50912926 -86.7024592 100.28394128 -86.78125 98.05859375 C-86.82616267 96.6536662 -86.87045446 95.24871865 -86.9140625 93.84375 C-86.9752124 91.91305664 -86.9752124 91.91305664 -87.03759766 89.94335938 C-87 87 -87 87 -86 86 C-85.8765866 83.06539738 -85.81379927 80.15075761 -85.7890625 77.21484375 C-85.76097019 75.38605912 -85.7323056 73.55728321 -85.703125 71.72851562 C-85.66202372 68.8409064 -85.6251465 65.95345579 -85.59863281 63.06567383 C-85.57084357 60.28171837 -85.52494576 57.49850769 -85.4765625 54.71484375 C-85.47330963 53.86244614 -85.47005676 53.01004852 -85.46670532 52.13182068 C-85.35175854 46.46291786 -84.2571338 42.20879913 -82 37 C-81.34 37 -80.68 37 -80 37 C-79.90203125 36.34773438 -79.8040625 35.69546875 -79.703125 35.0234375 C-77.78080816 23.78782698 -72.04398077 18.5763018 -63 12 C-60.36249025 10.41483 -57.84066069 9.22442271 -55 8 C-54.31784424 7.64631348 -53.63568848 7.29262695 -52.93286133 6.92822266 C-48.47938368 5.51873943 -44.09486731 5.64067388 -39.44921875 5.5859375 C-38.43527542 5.56657135 -37.42133209 5.5472052 -36.37666321 5.5272522 C-33.14702697 5.46760574 -29.9173548 5.42113049 -26.6875 5.375 C-24.49412532 5.33680651 -22.30076542 5.29775398 -20.10742188 5.2578125 C-14.7384127 5.16191652 -9.36931409 5.07682545 -4 5 C-3.67 4.01 -3.34 3.02 -3 2 C-2.01 1.34 -1.02 0.68 0 0 Z " fill="#F13C37" transform="translate(279,181)"/>
<path d="M0 0 C0 19.47 0 38.94 0 59 C-19.47 59 -38.94 59 -59 59 C-55.60092366 52.20184732 -50.68020582 47.62259888 -44.9375 42.75 C-43.10650686 41.09619975 -41.56392014 39.40390278 -40 37.5 C-38.044816 35.12180286 -36.04688009 33.11649151 -33.6796875 31.15234375 C-29.73065841 27.74280445 -26.05057077 24.1154521 -22.3828125 20.41015625 C-21.50154694 19.52056717 -21.50154694 19.52056717 -20.60247803 18.61300659 C-18.14669138 16.12961798 -15.69480251 13.6424511 -13.24707031 11.15112305 C-11.442454 9.31649281 -9.63181915 7.4879795 -7.8203125 5.66015625 C-7.26513947 5.09152359 -6.70996643 4.52289093 -6.13796997 3.93702698 C-2.22662466 0 -2.22662466 0 0 0 Z " fill="#626260" transform="translate(456,397)"/>
<path d="M0 0 C0.33 0 0.66 0 1 0 C1.02526787 7.10244999 1.04283201 14.20488848 1.05493164 21.30737305 C1.05997349 23.72567172 1.06680678 26.14396733 1.07543945 28.56225586 C1.08751157 32.02979283 1.09322963 35.49728966 1.09765625 38.96484375 C1.10281754 40.05337143 1.10797882 41.14189911 1.11329651 42.26341248 C1.11337204 43.26437454 1.11344757 44.26533661 1.11352539 45.29663086 C1.115746 46.18265488 1.11796661 47.06867889 1.12025452 47.98155212 C1 50 1 50 0 51 C-2.0968771 51.10476397 -4.19733224 51.13800985 -6.29681396 51.14476013 C-6.96228217 51.14828698 -7.62775038 51.15181382 -8.31338429 51.15544754 C-10.5601667 51.16618582 -12.80690679 51.16982454 -15.05371094 51.17358398 C-16.65836264 51.17988591 -18.26301258 51.1866513 -19.86766052 51.19384766 C-23.33367295 51.20855128 -26.79967847 51.2202629 -30.26570892 51.22979546 C-35.75539826 51.24523102 -41.24502961 51.26918493 -46.73468018 51.29469299 C-62.34928719 51.36592471 -77.96392867 51.4254786 -93.57861328 51.47680664 C-102.19480821 51.50520533 -110.81094669 51.54064669 -119.4270823 51.58346039 C-124.87356674 51.61010169 -130.31998728 51.62808833 -135.76652384 51.63949764 C-139.17494167 51.64869277 -142.5832829 51.66608788 -145.99165535 51.68567657 C-147.5600392 51.69308453 -149.12844282 51.697229 -150.6968441 51.69767189 C-152.85783842 51.69877378 -155.0184541 51.71219005 -157.17938232 51.72825623 C-158.38286694 51.73248816 -159.58635155 51.7367201 -160.82630539 51.74108028 C-166.58910024 52.09858157 -172.29326715 53.1220411 -178 54 C-178.33 68.85 -178.66 83.7 -179 99 C-172.73 99 -166.46 99 -160 99 C-160 99.33 -160 99.66 -160 100 C-107.2 100.33 -54.4 100.66 0 101 C0 101.33 0 101.66 0 102 C-10.63889564 102.84971779 -21.18115979 103.1399366 -31.84936523 103.11352539 C-33.47717283 103.11324249 -35.10498056 103.11340326 -36.73278809 103.1139679 C-41.10160669 103.11425185 -45.47039718 103.10842071 -49.83920932 103.10139394 C-54.42357152 103.09509291 -59.00793455 103.09455131 -63.59230042 103.09336853 C-72.25101101 103.09027495 -80.90970881 103.08208846 -89.56841379 103.07201904 C-99.43556127 103.06079624 -109.30270939 103.05533199 -119.16986167 103.05032361 C-139.44658156 103.03990395 -159.72328997 103.02234317 -180 103 C-180 102.34 -180 101.68 -180 101 C-180.66 101 -181.32 101 -182 101 C-182.16729064 97.03092526 -182.32788226 93.06164279 -182.48217773 89.09204102 C-182.53565802 87.74072921 -182.59099194 86.38948948 -182.64819336 85.03833008 C-182.72993571 83.09997011 -182.80453323 81.16131296 -182.87890625 79.22265625 C-182.9260376 78.05484619 -182.97316895 76.88703613 -183.02172852 75.68383789 C-183 73 -183 73 -182 72 C-181.84285346 70.36743242 -181.74914586 68.72864662 -181.68359375 67.08984375 C-181.64169922 66.10048828 -181.59980469 65.11113281 -181.55664062 64.09179688 C-181.51732422 63.05087891 -181.47800781 62.00996094 -181.4375 60.9375 C-181.39431641 59.89271484 -181.35113281 58.84792969 -181.30664062 57.77148438 C-181.20018775 55.18113116 -181.0981724 52.59067814 -181 50 C-179.41058594 49.90912109 -179.41058594 49.90912109 -177.7890625 49.81640625 C-176.40102779 49.73199873 -175.01300768 49.64735083 -173.625 49.5625 C-172.92632812 49.52318359 -172.22765625 49.48386719 -171.5078125 49.44335938 C-167.62639508 49.25719866 -167.62639508 49.25719866 -164 48 C-164 48.66 -164 49.32 -164 50 C-163.01 49.505 -163.01 49.505 -162 49 C-159.89682128 48.90571826 -157.79056248 48.87809815 -155.68527222 48.87974548 C-155.03019499 48.87889106 -154.37511776 48.87803663 -153.70018971 48.87715632 C-151.49524879 48.87550329 -149.29038319 48.88101999 -147.08544922 48.88647461 C-145.5088196 48.88675655 -143.93218985 48.88659862 -142.3555603 48.8860321 C-138.06654789 48.88574438 -133.77756327 48.89163709 -129.48855734 48.89860606 C-125.00955438 48.90484374 -120.53055083 48.90544373 -116.05154419 48.90663147 C-107.56593886 48.90974356 -99.08034637 48.91795531 -90.59474671 48.92798096 C-80.93587739 48.93914588 -71.27700747 48.9446535 -61.61813331 48.94967639 C-41.74541503 48.96013802 -21.87270832 48.9777351 -2 49 C-1.96241577 47.03994019 -1.96241577 47.03994019 -1.92407227 45.0402832 C-1.82979466 40.1853683 -1.72962375 35.33058968 -1.62768555 30.47583008 C-1.58441365 28.37592765 -1.54273317 26.27599179 -1.50268555 24.17602539 C-1.44479523 21.15500827 -1.3811549 18.13415821 -1.31640625 15.11328125 C-1.29969376 14.17664139 -1.28298126 13.24000153 -1.26576233 12.27497864 C-1.17060549 8.07402414 -1.05282381 4.09514743 0 0 Z " fill="#874D4B" transform="translate(375,339)"/>
<path d="M0 0 C0.66 0 1.32 0 2 0 C2 12.87 2 25.74 2 39 C-1.3 39.99 -4.6 40.98 -8 42 C-8.99773437 42.31324219 -9.99546875 42.62648438 -11.0234375 42.94921875 C-11.79945313 43.19285156 -12.57546875 43.43648438 -13.375 43.6875 C-14.16648437 43.93886719 -14.95796875 44.19023437 -15.7734375 44.44921875 C-18 45 -18 45 -22 45 C-22 45.66 -22 46.32 -22 47 C-26.455 47.495 -26.455 47.495 -31 48 C-31 48.66 -31 49.32 -31 50 C-31.66 50 -32.32 50 -33 50 C-32.4992506 43.32334138 -29.34686569 38.28510607 -24.625 33.6875 C-21.39986653 30.38557763 -19.24316652 26.74816499 -16.8203125 22.8359375 C-14.14644848 18.67021802 -11.09750084 14.85481932 -8 11 C-6.70502194 9.35677087 -5.41328632 7.71098066 -4.125 6.0625 C-3.55007813 5.33160156 -2.97515625 4.60070312 -2.3828125 3.84765625 C-0.94871038 2.04565922 -0.94871038 2.04565922 0 0 Z " fill="#5C5C5A" transform="translate(454,254)"/>
<path d="M0 0 C1.95092773 1.31665039 1.95092773 1.31665039 4 4 C4.70180211 7.62606873 4.72495335 11.24791832 4.78515625 14.93359375 C4.81355087 16.00368179 4.8419455 17.07376984 4.87120056 18.17628479 C4.92520741 20.43802879 4.96911236 22.70003332 5.00366211 24.9621582 C5.06224456 28.42241195 5.16876645 31.87895297 5.27929688 35.33789062 C5.32582991 37.5363986 5.36954376 39.73496843 5.41015625 41.93359375 C5.44528824 42.96705429 5.48042023 44.00051483 5.51661682 45.06529236 C5.52410446 46.03302078 5.5315921 47.00074921 5.53930664 47.99780273 C5.55610977 48.84511459 5.5729129 49.69242645 5.59022522 50.56541443 C4.71094614 54.1923014 2.83896021 55.64341628 0 58 C-3.05154896 58.59962177 -3.05154896 58.59962177 -6.52363586 58.56330872 C-7.84311722 58.56176788 -9.16259857 58.56022705 -10.52206421 58.55863953 C-11.97736474 58.53150351 -13.43265633 58.5038842 -14.88793945 58.47583008 C-16.4255889 58.46455344 -17.96325597 58.45549482 -19.50093079 58.44848633 C-23.67036713 58.42320244 -27.83887563 58.36690509 -32.00790811 58.3050406 C-36.36662517 58.24563444 -40.72554191 58.21474477 -45.08451843 58.18083191 C-53.33656272 58.1122966 -61.58810698 58.01811134 -69.83978003 57.91471261 C-79.23494753 57.79823392 -88.63031436 57.71034565 -98.02580702 57.62486041 C-117.35093221 57.44838933 -136.67551485 57.23600876 -156 57 C-156 56.67 -156 56.34 -156 56 C-155.19693955 55.99576806 -154.39387911 55.99153612 -153.5664835 55.98717594 C-134.05501814 55.88401475 -114.54359018 55.77539912 -95.03218937 55.66066074 C-85.59674906 55.60530736 -76.16130498 55.55182195 -66.72583008 55.50268555 C-58.50493941 55.45986955 -50.28407683 55.4135982 -42.0632295 55.36312145 C-37.70759326 55.33649961 -33.35196267 55.31164611 -28.99629402 55.29092598 C-24.90140656 55.27139192 -20.80657265 55.24725804 -16.71173286 55.21950912 C-15.20442168 55.21012151 -13.69709872 55.20245243 -12.18976974 55.19658089 C-10.14069573 55.18834875 -8.09165149 55.17348313 -6.0426178 55.15821838 C-4.89314195 55.15176583 -3.7436661 55.14531328 -2.55935764 55.1386652 C-0.06670849 55.28931399 -0.06670849 55.28931399 1 54 C1.09830562 52.50659806 1.12798451 51.00859623 1.12939453 49.51196289 C1.13412277 48.08026512 1.13412277 48.08026512 1.13894653 46.61964417 C1.1369223 45.58113815 1.13489807 44.54263214 1.1328125 43.47265625 C1.13376923 42.41340439 1.13472595 41.35415253 1.13571167 40.26280212 C1.1363937 38.01740459 1.13453784 35.7720051 1.13037109 33.52661133 C1.12502845 30.080847 1.13031262 26.63521334 1.13671875 23.18945312 C1.13605787 21.01302054 1.1347765 18.83658805 1.1328125 16.66015625 C1.13584885 15.10543358 1.13584885 15.10543358 1.13894653 13.51930237 C1.13579437 12.56168503 1.13264221 11.60406769 1.12939453 10.61743164 C1.12859894 9.77217422 1.12780334 8.92691681 1.12698364 8.05604553 C1.13056735 5.93511193 1.13056735 5.93511193 0 4 C-47.19 4 -94.38 4 -143 4 C-143 3.67 -143 3.34 -143 3 C-72.71 2.505 -72.71 2.505 -1 2 C-0.67 1.34 -0.34 0.68 0 0 Z " fill="#C43836" transform="translate(374,335)"/>
<path d="M0 0 C0.66 0 1.32 0 2 0 C1.67 1.32 1.34 2.64 1 4 C0.34 4 -0.32 4 -1 4 C-1.33 4.99 -1.66 5.98 -2 7 C-3.9375 9.1875 -3.9375 9.1875 -6 11 C-6.66 11 -7.32 11 -8 11 C-8.33 11.99 -8.66 12.98 -9 14 C-9.66 14 -10.32 14 -11 14 C-11 14.66 -11 15.32 -11 16 C-12.66666667 17.33333333 -14.33333333 18.66666667 -16 20 C-17.21409378 21.46969247 -18.42723769 22.94037924 -19.6171875 24.4296875 C-21.12618202 26.14329144 -22.74106791 27.5456449 -24.5 29 C-26.79926074 30.903689 -28.50354059 32.60683097 -30.4375 34.9375 C-33.04273056 38.05106823 -35.80527859 40.51601118 -38.8828125 43.140625 C-42.97294738 46.73269917 -46.79629168 50.63643719 -50.5078125 54.6171875 C-51.62000767 55.79598119 -52.80390763 56.90642983 -54 58 C-54.99 58 -55.98 58 -57 58 C-56.38511719 57.31164062 -56.38511719 57.31164062 -55.7578125 56.609375 C-55.21898437 55.99578125 -54.68015625 55.3821875 -54.125 54.75 C-53.59132813 54.14671875 -53.05765625 53.5434375 -52.5078125 52.921875 C-51.0202513 51.02581254 -49.99677564 49.18709995 -49 47 C-48.34 47 -47.68 47 -47 47 C-46.78085937 46.43410156 -46.56171875 45.86820313 -46.3359375 45.28515625 C-45.36066957 43.02935359 -44.40765852 41.01764387 -43 39 C-39.75 38 -39.75 38 -37 38 C-36.67 36.35 -36.34 34.7 -36 33 C-35.34 33 -34.68 33 -34 33 C-33.91363281 32.40574219 -33.82726562 31.81148437 -33.73828125 31.19921875 C-32.79418258 28.38690365 -31.57353177 27.53451551 -29.1875 25.8125 C-28.50042969 25.30332031 -27.81335938 24.79414062 -27.10546875 24.26953125 C-25 23 -25 23 -22.8046875 22.51171875 C-22.20914063 22.34285156 -21.61359375 22.17398438 -21 22 C-20.29618843 20.01276732 -19.6288189 18.01222047 -19 16 C-18.01 15.67 -17.02 15.34 -16 15 C-14.60287726 13.04402816 -13.26220093 11.04563599 -12 9 C-11.01 9.33 -10.02 9.66 -9 10 C-9 9.01 -9 8.02 -9 7 C-7.2421875 6.05598958 -5.484375 5.11197917 -3.7265625 4.16796875 C-1.69497635 2.95236507 -1.69497635 2.95236507 0 0 Z " fill="#565653" transform="translate(427,34)"/>
<path d="M0 0 C0.33 0 0.66 0 1 0 C0.99777939 0.55169861 0.99555878 1.10339722 0.99327087 1.67181396 C0.78584918 33.71597917 0.78584918 33.71597917 1.4375 65.75 C1.49635376 67.40273926 1.49635376 67.40273926 1.55639648 69.08886719 C1.74276295 73.51444486 2.05099338 77.66361389 3 82 C3.33 82 3.66 82 4 82 C4.33 84.31 4.66 86.62 5 89 C5.66 89 6.32 89 7 89 C7 90.65 7 92.3 7 94 C7.66 94 8.32 94 9 94 C9.226875 94.7425 9.45375 95.485 9.6875 96.25 C11.28723957 99.6018353 12.90194431 100.98266141 16 103 C18.68507329 103.78946609 18.68507329 103.78946609 21 104 C21 104.99 21 105.98 21 107 C23.31 107.99 25.62 108.98 28 110 C27.01 110.99 27.01 110.99 26 112 C22.13336858 111.72261122 19.67700614 109.42892456 16.75 107.0625 C15.85796875 106.35222656 14.9659375 105.64195312 14.046875 104.91015625 C13.37140625 104.27980469 12.6959375 103.64945312 12 103 C12 102.34 12 101.68 12 101 C11.01 100.67 10.02 100.34 9 100 C6.23408575 96.42058156 4.53135317 93.51650194 4 89 C3.34 89 2.68 89 2 89 C1.69255859 87.71802734 1.69255859 87.71802734 1.37890625 86.41015625 C1.10949219 85.30542969 0.84007812 84.20070313 0.5625 83.0625 C0.29566406 81.96035156 0.02882812 80.85820312 -0.24609375 79.72265625 C-0.72995725 77.10578746 -0.72995725 77.10578746 -2 76 C-2.17117772 73.72216492 -2.27525348 71.43923301 -2.3515625 69.15625 C-2.37471527 68.47195923 -2.39786804 67.78766846 -2.42172241 67.0826416 C-2.46941301 65.63345891 -2.51464081 64.18419343 -2.55761719 62.73486328 C-2.62472475 60.50912926 -2.7024592 58.28394128 -2.78125 56.05859375 C-2.82616267 54.6536662 -2.87045446 53.24871865 -2.9140625 51.84375 C-2.9752124 49.91305664 -2.9752124 49.91305664 -3.03759766 47.94335938 C-3 45 -3 45 -2 44 C-1.85193265 41.00697873 -1.76483655 38.0341752 -1.71875 35.0390625 C-1.70034058 34.13755463 -1.68193115 33.23604675 -1.66296387 32.30722046 C-1.60401939 29.41321543 -1.55130451 26.51914996 -1.5 23.625 C-1.4323981 19.82539428 -1.35867243 16.0259793 -1.28125 12.2265625 C-1.26767456 11.34835846 -1.25409912 10.47015442 -1.2401123 9.56533813 C-1.22339478 8.74794159 -1.20667725 7.93054504 -1.18945312 7.08837891 C-1.17692505 6.36969635 -1.16439697 5.65101379 -1.15148926 4.91055298 C-1 3 -1 3 0 0 Z " fill="#CC514F" transform="translate(195,223)"/>
<path d="M0 0 C0.33 0.99 0.66 1.98 1 3 C-3.29 3.66 -7.58 4.32 -12 5 C-12.33 19.85 -12.66 34.7 -13 50 C-6.73 50 -0.46 50 6 50 C6 50.33 6 50.66 6 51 C-0.27 51 -6.54 51 -13 51 C-13 51.66 -13 52.32 -13 53 C-5.74 53 1.52 53 9 53 C9 53.33 9 53.66 9 54 C1.41 54 -6.18 54 -14 54 C-14 53.34 -14 52.68 -14 52 C-14.66 52 -15.32 52 -16 52 C-16.16729064 48.03092526 -16.32788226 44.06164279 -16.48217773 40.09204102 C-16.53565802 38.74072921 -16.59099194 37.38948948 -16.64819336 36.03833008 C-16.72993571 34.09997011 -16.80453323 32.16131296 -16.87890625 30.22265625 C-16.9260376 29.05484619 -16.97316895 27.88703613 -17.02172852 26.68383789 C-17 24 -17 24 -16 23 C-15.84285346 21.36743242 -15.74914586 19.72864662 -15.68359375 18.08984375 C-15.62075195 16.60581055 -15.62075195 16.60581055 -15.55664062 15.09179688 C-15.49766602 13.53041992 -15.49766602 13.53041992 -15.4375 11.9375 C-15.39431641 10.89271484 -15.35113281 9.84792969 -15.30664062 8.77148438 C-15.20018895 6.18116028 -15.09955692 3.59059825 -15 1 C-10.05 0.67 -5.1 0.34 0 0 Z " fill="#B14844" transform="translate(209,388)"/>
<path d="M0 0 C0.99 0 1.98 0 3 0 C3 0.66 3 1.32 3 2 C3.99 2.495 3.99 2.495 5 3 C3.44977781 4.55022219 1.97954285 4.13228239 -0.17749023 4.1418457 C-1.06609238 4.14888016 -1.95469452 4.15591461 -2.870224 4.16316223 C-4.32471703 4.16940865 -4.32471703 4.16940865 -5.80859375 4.17578125 C-7.85612981 4.19900247 -9.90365586 4.2231207 -11.95117188 4.24804688 C-15.18325261 4.28300018 -18.4149711 4.31240575 -21.6472168 4.32592773 C-24.76396105 4.34152465 -27.87963628 4.38183555 -30.99609375 4.42578125 C-31.94753769 4.42387283 -32.89898163 4.42196442 -33.8792572 4.41999817 C-42.20657688 4.56975777 -49.90250408 6.75646572 -56.4375 12.125 C-57.05496094 12.62257812 -57.67242187 13.12015625 -58.30859375 13.6328125 C-58.86675781 14.08398438 -59.42492187 14.53515625 -60 15 C-60.99 15.66 -61.98 16.32 -63 17 C-62.8125 14.125 -62.8125 14.125 -62 11 C-59.9375 9.875 -59.9375 9.875 -57 9 C-55.57125756 8.35962203 -54.15490743 7.69110347 -52.75 7 C-52.06421875 6.67 -51.3784375 6.34 -50.671875 6 C-48.825372 5.09910688 -48.825372 5.09910688 -48 3 C-43.29249577 1.54107243 -38.24378171 1.79327383 -33.359375 1.71875 C-31.97519379 1.69113586 -31.97519379 1.69113586 -30.56304932 1.66296387 C-26.62385415 1.58441511 -22.68449818 1.51624818 -18.74511719 1.44775391 C-15.866446 1.39619703 -12.98792922 1.33891572 -10.109375 1.28125 C-9.21152283 1.26767456 -8.31367065 1.25409912 -7.38861084 1.2401123 C-3.37246718 1.55798442 -3.37246718 1.55798442 0 0 Z " fill="#6A3C3A" transform="translate(271,183)"/>
<path d="M0 0 C0.99 0.495 0.99 0.495 2 1 C1.505 1.61875 1.01 2.2375 0.5 2.875 C-1.19222773 4.83880904 -1.19222773 4.83880904 -1 7 C-1.5593222 7.00808685 -2.11864441 7.01617371 -2.69491577 7.02450562 C-8.50225045 7.11038349 -14.30923715 7.2098789 -20.11621094 7.31738281 C-22.28509693 7.35572991 -24.45404777 7.39057255 -26.62304688 7.421875 C-29.73591332 7.46740138 -32.84833106 7.52541573 -35.9609375 7.5859375 C-36.934935 7.59748871 -37.9089325 7.60903992 -38.91244507 7.62094116 C-39.81322784 7.64081085 -40.71401062 7.66068054 -41.64208984 7.68115234 C-42.83455826 7.70113785 -42.83455826 7.70113785 -44.05111694 7.7215271 C-46.23465372 7.83467008 -46.23465372 7.83467008 -48 10 C-49.27875 10.103125 -50.5575 10.20625 -51.875 10.3125 C-55.30143978 10.64588333 -55.7544078 10.72634012 -58.1875 13.4375 C-58.785625 14.283125 -59.38375 15.12875 -60 16 C-61.6529183 16.70005951 -63.32176819 17.3630069 -65 18 C-70.06134086 20.86697215 -74.57167894 23.49580559 -77 29 C-77 25.29736193 -76.11520413 24.01201444 -74 21 C-68.28746155 15.52740662 -62.25756519 11.12826086 -55 8 C-54.31784424 7.64631348 -53.63568848 7.29262695 -52.93286133 6.92822266 C-48.47938368 5.51873943 -44.09486731 5.64067388 -39.44921875 5.5859375 C-38.43527542 5.56657135 -37.42133209 5.5472052 -36.37666321 5.5272522 C-33.14702697 5.46760574 -29.9173548 5.42113049 -26.6875 5.375 C-24.49412532 5.33680651 -22.30076542 5.29775398 -20.10742188 5.2578125 C-14.7384127 5.16191652 -9.36931409 5.07682545 -4 5 C-3.67 4.01 -3.34 3.02 -3 2 C-2.01 1.34 -1.02 0.68 0 0 Z " fill="#C94241" transform="translate(279,181)"/>
<path d="M0 0 C1 2 1 2 0.0625 5.125 C-0.288125 6.07375 -0.63875 7.0225 -1 8 C-1.66 8 -2.32 8 -3 8 C-3.144375 8.763125 -3.28875 9.52625 -3.4375 10.3125 C-4 13 -4 13 -5 16 C-5.11265547 17.36515314 -5.17582586 18.73477212 -5.20532227 20.10424805 C-5.22526749 20.92487228 -5.24521271 21.74549652 -5.26576233 22.59098816 C-5.28247482 23.47232925 -5.29918732 24.35367035 -5.31640625 25.26171875 C-5.33718735 26.16751175 -5.35796844 27.07330475 -5.37937927 28.00654602 C-5.44476558 30.90012016 -5.50370904 33.79378507 -5.5625 36.6875 C-5.6056956 38.64909793 -5.64931023 40.61068668 -5.69335938 42.57226562 C-5.80043582 47.38141739 -5.90173414 52.19066046 -6 57 C-6.99 57.495 -6.99 57.495 -8 58 C-8.02481649 52.43156251 -8.04291507 46.86315759 -8.05493164 41.29467773 C-8.05994403 39.40241942 -8.06675567 37.51016495 -8.07543945 35.61791992 C-8.08764098 32.88980152 -8.09325938 30.16173457 -8.09765625 27.43359375 C-8.10281754 26.59477158 -8.10797882 25.7559494 -8.11329651 24.89170837 C-8.11456688 11.43122829 -8.11456688 11.43122829 -4 6 C-3.34 6 -2.68 6 -2 6 C-1.34 4.02 -0.68 2.04 0 0 Z " fill="#863532" transform="translate(200,210)"/>
<path d="M0 0 C0.66 0 1.32 0 2 0 C2 16.83 2 33.66 2 51 C1.01 51 0.02 51 -1 51 C-0.67 34.17 -0.34 17.34 0 0 Z " fill="#E75653" transform="translate(237,237)"/>
<path d="M0 0 C0.33 2.31 0.66 4.62 1 7 C1.66 7 2.32 7 3 7 C3 8.65 3 10.3 3 12 C3.66 12 4.32 12 5 12 C5.3403125 13.11375 5.3403125 13.11375 5.6875 14.25 C7.28723957 17.6018353 8.90194431 18.98266141 12 21 C14.68507329 21.78946609 14.68507329 21.78946609 17 22 C17 22.99 17 23.98 17 25 C19.31 25.99 21.62 26.98 24 28 C23.34 28.66 22.68 29.32 22 30 C18.13336858 29.72261122 15.67700614 27.42892456 12.75 25.0625 C11.85796875 24.35222656 10.9659375 23.64195312 10.046875 22.91015625 C9.37140625 22.27980469 8.6959375 21.64945312 8 21 C8 20.34 8 19.68 8 19 C7.01 18.67 6.02 18.34 5 18 C2.23408575 14.42058156 0.53135317 11.51650194 0 7 C-0.66 7 -1.32 7 -2 7 C-2.33 5.02 -2.66 3.04 -3 1 C-1 0 -1 0 0 0 Z " fill="#AD4443" transform="translate(199,305)"/>
<path d="M0 0 C0.33 0.66 0.66 1.32 1 2 C-0.62339805 3.70884005 -2.29319053 5.37446717 -4 7 C-4.66 7 -5.32 7 -6 7 C-6.33 7.99 -6.66 8.98 -7 10 C-9.0625 10.6875 -9.0625 10.6875 -11 11 C-11.04125 11.556875 -11.0825 12.11375 -11.125 12.6875 C-12.46930374 16.24030274 -15.00974189 17.70958953 -18 20 C-18 19.01 -18 18.02 -18 17 C-19.32 17.33 -20.64 17.66 -22 18 C-18.3429012 14.19195153 -14.50430058 10.89187757 -10.3125 7.6875 C-9.73177734 7.23310547 -9.15105469 6.77871094 -8.55273438 6.31054688 C-4.2465343 3 -4.2465343 3 -2 3 C-2 2.34 -2 1.68 -2 1 C-1.34 0.67 -0.68 0.34 0 0 Z " fill="#3F3F3C" transform="translate(296,74)"/>
<path d="M0 0 C0.33 0.99 0.66 1.98 1 3 C-3.29 3.66 -7.58 4.32 -12 5 C-12.63459691 8.17298453 -13.13700265 10.83590372 -13.31640625 13.98828125 C-13.35830078 14.69404297 -13.40019531 15.39980469 -13.44335938 16.12695312 C-13.50233398 17.20879883 -13.50233398 17.20879883 -13.5625 18.3125 C-13.60568359 19.05306641 -13.64886719 19.79363281 -13.69335938 20.55664062 C-13.79870432 22.37091464 -13.89978316 24.1854355 -14 26 C-14.99 26 -15.98 26 -17 26 C-16.505 24.515 -16.505 24.515 -16 23 C-15.85222064 21.30132812 -15.75252934 19.59822511 -15.68359375 17.89453125 C-15.62075195 16.42016602 -15.62075195 16.42016602 -15.55664062 14.91601562 C-15.51732422 13.89185547 -15.47800781 12.86769531 -15.4375 11.8125 C-15.39431641 10.77673828 -15.35113281 9.74097656 -15.30664062 8.67382812 C-15.20055737 6.11604298 -15.09977414 3.55803902 -15 1 C-10.05 0.67 -5.1 0.34 0 0 Z " fill="#C54040" transform="translate(209,388)"/>
<path d="M0 0 C0.66 0 1.32 0 2 0 C2 0.99 2 1.98 2 3 C1.34 3 0.68 3 0 3 C-0.33 4.65 -0.66 6.3 -1 8 C-1.99 8 -2.98 8 -4 8 C-5.15628906 8.01160156 -6.31257812 8.02320313 -7.50390625 8.03515625 C-8.85676974 8.04443151 -10.20963438 8.05354063 -11.5625 8.0625 C-12.24763672 8.07087891 -12.93277344 8.07925781 -13.63867188 8.08789062 C-18.77382471 8.11308765 -18.77382471 8.11308765 -21 7 C-21 6.34 -21 5.68 -21 5 C-16.71 5 -12.42 5 -8 5 C-7.67 4.01 -7.34 3.02 -7 2 C-4.69 2 -2.38 2 0 2 C0 1.34 0 0.68 0 0 Z " fill="#494946" transform="translate(213,381)"/>
<path d="M0 0 C0 0.66 0 1.32 0 2 C-1.27875 2.0825 -2.5575 2.165 -3.875 2.25 C-13.0754698 3.30437095 -19.91546532 7.27347081 -27 13 C-27.99 13.66 -28.98 14.32 -30 15 C-29.8125 12.125 -29.8125 12.125 -29 9 C-26.9375 7.875 -26.9375 7.875 -24 7 C-22.57125756 6.35962203 -21.15490743 5.69110347 -19.75 5 C-19.06421875 4.67 -18.3784375 4.34 -17.671875 4 C-15.825372 3.09910688 -15.825372 3.09910688 -15 1 C-10.19396481 -0.55033393 -4.99180941 -0.0872355 0 0 Z " fill="#5F3531" transform="translate(238,185)"/>
<path d="M0 0 C0.33 0.99 0.66 1.98 1 3 C0.154375 3.66 -0.69125 4.32 -1.5625 5 C-4.96178964 7.80178979 -7.69589285 11.02810367 -10.484375 14.42578125 C-10.98453125 14.94527344 -11.4846875 15.46476562 -12 16 C-12.66 16 -13.32 16 -14 16 C-14.33 16.99 -14.66 17.98 -15 19 C-17.0625 20.1875 -17.0625 20.1875 -19 21 C-18.505 19.515 -18.505 19.515 -18 18 C-17.34 18 -16.68 18 -16 18 C-15.71125 17.030625 -15.4225 16.06125 -15.125 15.0625 C-14 12 -14 12 -12 11 C-11.67 10.01 -11.34 9.02 -11 8 C-10.01 8.33 -9.02 8.66 -8 9 C-7.67 8.01 -7.34 7.02 -7 6 C-6.01 6 -5.02 6 -4 6 C-3.566875 5.071875 -3.566875 5.071875 -3.125 4.125 C-2 2 -2 2 0 0 Z " fill="#4F4F4B" transform="translate(333,4)"/>
<path d="M0 0 C0 0.66 0 1.32 0 2 C-1.14339844 2.34933594 -2.28679687 2.69867188 -3.46484375 3.05859375 C-4.95577988 3.51806463 -6.44666255 3.97770901 -7.9375 4.4375 C-8.69224609 4.66759766 -9.44699219 4.89769531 -10.22460938 5.13476562 C-13.90208452 6.03001736 -13.90208452 6.03001736 -17 8 C-18.66617115 8.04063832 -20.33388095 8.042721 -22 8 C-21.67 7.01 -21.34 6.02 -21 5 C-17.98046875 3.8671875 -17.98046875 3.8671875 -14.1875 2.875 C-12.94355469 2.54242188 -11.69960937 2.20984375 -10.41796875 1.8671875 C-9.29003906 1.58101563 -8.16210938 1.29484375 -7 1 C-5.88044922 0.69449219 -5.88044922 0.69449219 -4.73828125 0.3828125 C-3 0 -3 0 0 0 Z " fill="#4E4E4A" transform="translate(179,376)"/>
<path d="M0 0 C-1.875 5.75 -1.875 5.75 -3 8 C-3.66 8 -4.32 8 -5 8 C-5.33 9.32 -5.66 10.64 -6 12 C-6.66 12 -7.32 12 -8 12 C-7.67 9.69 -7.34 7.38 -7 5 C-7.99 5 -8.98 5 -10 5 C-9.67 4.01 -9.34 3.02 -9 2 C-5.82757352 0.68964993 -3.44118336 0 0 0 Z " fill="#666560" transform="translate(230,360)"/>
<path d="M0 0 C0.33 0.66 0.66 1.32 1 2 C0.67 2.99 0.34 3.98 0 5 C-0.66 5 -1.32 5 -2 5 C-2.33 6.65 -2.66 8.3 -3 10 C-2.34 10 -1.68 10 -1 10 C-2.75 13.875 -2.75 13.875 -5 15 C-7.125 14.0625 -7.125 14.0625 -9 13 C-8 11.33333333 -7 9.66666667 -6 8 C-5.505 7.13375 -5.01 6.2675 -4.5 5.375 C-3.15840264 3.25080417 -1.8530874 1.67660288 0 0 Z " fill="#5B5C56" transform="translate(439,412)"/>
<path d="M0 0 C-0.33 1.65 -0.66 3.3 -1 5 C-1.99 5.33 -2.98 5.66 -4 6 C-4.33 6.99 -4.66 7.98 -5 9 C-5.66 9 -6.32 9 -7 9 C-7 9.66 -7 10.32 -7 11 C-7.99 11 -8.98 11 -10 11 C-9.91563067 8.13144287 -9.41307819 6.44317685 -7.4453125 4.33203125 C-2.48559976 0 -2.48559976 0 0 0 Z " fill="#4C4C4A" transform="translate(311,149)"/>
<path d="M0 0 C-1.98 0.99 -1.98 0.99 -4 2 C-4 2.99 -4 3.98 -4 5 C-4.66 5 -5.32 5 -6 5 C-6 4.34 -6 3.68 -6 3 C-6.90492188 3.2165625 -6.90492188 3.2165625 -7.828125 3.4375 C-8.62734375 3.623125 -9.4265625 3.80875 -10.25 4 C-11.03890625 4.185625 -11.8278125 4.37125 -12.640625 4.5625 C-15 5 -15 5 -19 5 C-19 4.34 -19 3.68 -19 3 C-17.35 3 -15.7 3 -14 3 C-14 2.34 -14 1.68 -14 1 C-12.41913952 0.63495397 -10.83516093 0.28339494 -9.25 -0.0625 C-8.36828125 -0.25972656 -7.4865625 -0.45695312 -6.578125 -0.66015625 C-4.01320972 -0.99825872 -2.42908361 -0.81158635 0 0 Z " fill="#41413E" transform="translate(156,384)"/>
<path d="M0 0 C0.33 0.99 0.66 1.98 1 3 C-4.66666667 8.66666667 -10.33333333 14.33333333 -16 20 C-16.66 19.67 -17.32 19.34 -18 19 C-17.01 17.515 -17.01 17.515 -16 16 C-15.34 16 -14.68 16 -14 16 C-13.79375 15.443125 -13.5875 14.88625 -13.375 14.3125 C-11.84631641 11.74153214 -9.99311638 10.27320749 -7.6640625 8.4375 C-4.76800864 5.93574455 -2.40798528 2.96301735 0 0 Z " fill="#51514D" transform="translate(272,64)"/>
<path d="M0 0 C0.66 0.33 1.32 0.66 2 1 C1.505 1.61875 1.01 2.2375 0.5 2.875 C-1.19222773 4.83880904 -1.19222773 4.83880904 -1 7 C-11.56 7 -22.12 7 -33 7 C-33 6.67 -33 6.34 -33 6 C-23.43 5.67 -13.86 5.34 -4 5 C-3.67 4.01 -3.34 3.02 -3 2 C-2.01 1.34 -1.02 0.68 0 0 Z " fill="#C44444" transform="translate(279,181)"/>
<path d="M0 0 C-0.33 0.99 -0.66 1.98 -1 3 C-3.5625 4.1875 -3.5625 4.1875 -6 5 C-6 5.66 -6 6.32 -6 7 C-7.32 7.33 -8.64 7.66 -10 8 C-10 8.66 -10 9.32 -10 10 C-13 12 -13 12 -16 12 C-16 12.66 -16 13.32 -16 14 C-16.99 14.33 -17.98 14.66 -19 15 C-17.65658689 11.88481501 -16.33074518 10.19247453 -13.59375 8.203125 C-12.93246094 7.71972656 -12.27117187 7.23632812 -11.58984375 6.73828125 C-10.55537109 6.00158203 -10.55537109 6.00158203 -9.5 5.25 C-8.46552734 4.49009766 -8.46552734 4.49009766 -7.41015625 3.71484375 C-2.27345856 0 -2.27345856 0 0 0 Z " fill="#60605D" transform="translate(197,150)"/>
<path d="M0 0 C0 0.66 0 1.32 0 2 C-5.66221678 5.61752739 -11.40232633 5.69040043 -18 6 C-18 5.34 -18 4.68 -18 4 C-16.35 4 -14.7 4 -13 4 C-13 3.34 -13 2.68 -13 2 C-11.39658445 1.66307215 -9.79223445 1.33058907 -8.1875 1 C-7.29417969 0.814375 -6.40085938 0.62875 -5.48046875 0.4375 C-3 0 -3 0 0 0 Z " fill="#5D5D5B" transform="translate(219,364)"/>
<path d="M0 0 C0.66 0 1.32 0 2 0 C1.65266862 4.58043263 -1.7530996 6.82697984 -5 9.625 C-9.01842399 12.88512904 -9.01842399 12.88512904 -12 17 C-12.66 16.67 -13.32 16.34 -14 16 C-7.35793358 6.87822878 -7.35793358 6.87822878 -4 4 C-3.34 4 -2.68 4 -2 4 C-1.34 2.68 -0.68 1.36 0 0 Z " fill="#615E59" transform="translate(82,43)"/>
<path d="M0 0 C0.33 0.66 0.66 1.32 1 2 C-0.65 3.65 -2.3 5.3 -4 7 C-4 4 -4 4 -2 1.8125 C-1.34 1.214375 -0.68 0.61625 0 0 Z M-7 8 C-7 10.9355647 -7.15755581 13.19185271 -8 16 C-11.20689655 19 -11.20689655 19 -14 19 C-12.22054913 14.95579349 -9.60470327 11.53921513 -7 8 Z " fill="#302B25" transform="translate(68,62)"/>
<path d="M0 0 C0 3 0 3 -1.6875 4.9375 C-4.05896378 7.05258931 -6.49196337 9.04930484 -9 11 C-9.66 10.67 -10.32 10.34 -11 10 C-10.67 9.01 -10.34 8.02 -10 7 C-9.34 7 -8.68 7 -8 7 C-8 6.34 -8 5.68 -8 5 C-6.68 4.67 -5.36 4.34 -4 4 C-4 3.34 -4 2.68 -4 2 C-2.68 1.34 -1.36 0.68 0 0 Z M-10 11 C-9.67 11.66 -9.34 12.32 -9 13 C-9.66 12.67 -10.32 12.34 -11 12 C-10.67 11.67 -10.34 11.34 -10 11 Z " fill="#545350" transform="translate(310,64)"/>
<path d="M0 0 C0.66 0 1.32 0 2 0 C1.67 1.32 1.34 2.64 1 4 C0.34 4 -0.32 4 -1 4 C-1.33 4.99 -1.66 5.98 -2 7 C-3.9375 9.1875 -3.9375 9.1875 -6 11 C-6.66 11 -7.32 11 -8 11 C-8 11.66 -8 12.32 -8 13 C-8.66 12.67 -9.32 12.34 -10 12 C-9.9375 9.75 -9.9375 9.75 -9 7 C-7.29935416 5.77792786 -5.58399468 4.88514154 -3.69140625 3.9921875 C-1.6629622 2.96788045 -1.6629622 2.96788045 0 0 Z " fill="#656561" transform="translate(427,34)"/>
<path d="M0 0 C0.33 0 0.66 0 1 0 C1 7.92 1 15.84 1 24 C0.01 24 -0.98 24 -2 24 C-2 21.36 -2 18.72 -2 16 C-1.34 16 -0.68 16 0 16 C0 10.72 0 5.44 0 0 Z " fill="#BE3937" transform="translate(195,398)"/>
<path d="M0 0 C0.66 0.33 1.32 0.66 2 1 C0.71937515 2.7074998 -0.61767557 4.37373596 -2 6 C-2.66 6 -3.32 6 -4 6 C-4 6.66 -4 7.32 -4 8 C-3.34 8.66 -2.68 9.32 -2 10 C-3.32 10.99 -4.64 11.98 -6 13 C-6.99 12.34 -7.98 11.68 -9 11 C-6.62245212 6.50907623 -3.6393937 3.47764287 0 0 Z " fill="#76766F" transform="translate(448,403)"/>
<path d="M0 0 C0.99 0.33 1.98 0.66 3 1 C2.5317879 5.77576339 1.75668002 9.04476345 -1 13 C-1.66 12.67 -2.32 12.34 -3 12 C-2.67 10.02 -2.34 8.04 -2 6 C-1.34 6 -0.68 6 0 6 C0 4.02 0 2.04 0 0 Z " fill="#BE4945" transform="translate(416,403)"/>
<path d="M0 0 C0.66 0 1.32 0 2 0 C-0.76870741 5.99886605 -4.73070583 11.0191568 -9 16 C-9.8125 14.3125 -9.8125 14.3125 -10 12 C-7.8125 9.625 -7.8125 9.625 -5 7 C-3.63178949 5.02369593 -2.29048808 3.02790984 -1 1 C-0.67 0.67 -0.34 0.34 0 0 Z " fill="#7B7B78" transform="translate(437,278)"/>
<path d="M0 0 C0.33 0.66 0.66 1.32 1 2 C-2.11016455 5.28788824 -5.01618925 7.83735988 -9 10 C-9.33 9.01 -9.66 8.02 -10 7 C-9.34 7 -8.68 7 -8 7 C-8 6.34 -8 5.68 -8 5 C-6.25 3.7109375 -6.25 3.7109375 -4 2.375 C-3.2575 1.92898437 -2.515 1.48296875 -1.75 1.0234375 C-0.88375 0.51683594 -0.88375 0.51683594 0 0 Z " fill="#4C4C48" transform="translate(350,34)"/>
<path d="M0 0 C1.89551022 -0.05441656 3.7914792 -0.09298035 5.6875 -0.125 C6.74324219 -0.14820313 7.79898438 -0.17140625 8.88671875 -0.1953125 C12.02251859 0.00141271 14.17645373 0.66942346 17 2 C17 2.33 17 2.66 17 3 C14.54159395 3.02691685 12.08348118 3.04679802 9.625 3.0625 C8.92632812 3.07087891 8.22765625 3.07925781 7.5078125 3.08789062 C2.2265625 3.11328125 2.2265625 3.11328125 0 2 C0 1.34 0 0.68 0 0 Z " fill="#523C3D" transform="translate(192,386)"/>
<path d="M0 0 C0 3 0 3 -1 5 C-1.99 5 -2.98 5 -4 5 C-4 6.32 -4 7.64 -4 9 C-4.66 9 -5.32 9 -6 9 C-6.103125 9.763125 -6.20625 10.52625 -6.3125 11.3125 C-7.04364039 14.17059424 -7.76951913 15.15742885 -10 17 C-9.51384328 10.51791045 -6.57313529 5.22541431 -1.6875 1 C-1.130625 0.67 -0.57375 0.34 0 0 Z " fill="#E64040" transform="translate(209,201)"/>
<path d="M0 0 C0.66 0.33 1.32 0.66 2 1 C0.71632558 2.83893824 -0.57716761 4.67102625 -1.875 6.5 C-2.95394531 8.03140625 -2.95394531 8.03140625 -4.0546875 9.59375 C-4.69664062 10.3878125 -5.33859375 11.181875 -6 12 C-6.66 12 -7.32 12 -8 12 C-5.864 3.7164878 -5.864 3.7164878 -2.4375 0.875 C-1.633125 0.58625 -0.82875 0.2975 0 0 Z " fill="#585854" transform="translate(168,444)"/>
<path d="M0 0 C0.66 0.33 1.32 0.66 2 1 C1.40364189 4.57814867 0.000066 6.54422861 -2.375 9.25 C-2.98085938 9.95640625 -3.58671875 10.6628125 -4.2109375 11.390625 C-6 13 -6 13 -9 13 C-8.8125 11.1875 -8.8125 11.1875 -8 9 C-5.5 7.375 -5.5 7.375 -3 6 C-2.67 5.34 -2.34 4.68 -2 4 C-1.34 4 -0.68 4 0 4 C0 2.68 0 1.36 0 0 Z " fill="#595956" transform="translate(297,37)"/>
<path d="M0 0 C0.99 0.33 1.98 0.66 3 1 C1.59785066 2.36919284 0.17771527 3.71998709 -1.25 5.0625 C-2.43335938 6.19365234 -2.43335938 6.19365234 -3.640625 7.34765625 C-6 9 -6 9 -8.296875 8.74609375 C-8.85890625 8.49988281 -9.4209375 8.25367188 -10 8 C-8.40629329 6.63353852 -6.79967018 5.28212834 -5.1875 3.9375 C-4.29417969 3.18339844 -3.40085938 2.42929688 -2.48046875 1.65234375 C-1.25263672 0.83443359 -1.25263672 0.83443359 0 0 Z " fill="#4A4846" transform="translate(225,127)"/>
<path d="M0 0 C0.33 0.66 0.66 1.32 1 2 C-4.30311615 7.59773371 -4.30311615 7.59773371 -8 9 C-8.66 9 -9.32 9 -10 9 C-10 8.34 -10 7.68 -10 7 C-7.8125 5.2734375 -7.8125 5.2734375 -5 3.375 C-4.071875 2.74335937 -3.14375 2.11171875 -2.1875 1.4609375 C-1.1046875 0.73777344 -1.1046875 0.73777344 0 0 Z " fill="#4F4E4B" transform="translate(268,95)"/>
<path d="M0 0 C0.57234375 0.22171875 1.1446875 0.4434375 1.734375 0.671875 C0.421875 2.171875 0.421875 2.171875 -1.265625 3.671875 C-2.255625 3.671875 -3.245625 3.671875 -4.265625 3.671875 C-4.265625 4.331875 -4.265625 4.991875 -4.265625 5.671875 C-7.72716346 8.671875 -7.72716346 8.671875 -10.265625 8.671875 C-10.265625 5.671875 -10.265625 5.671875 -8.65625 4.03125 C-7.94984375 3.50015625 -7.2434375 2.9690625 -6.515625 2.421875 C-5.81953125 1.88046875 -5.1234375 1.3390625 -4.40625 0.78125 C-2.265625 -0.328125 -2.265625 -0.328125 0 0 Z " fill="#4D4D4B" transform="translate(366.265625,23.328125)"/>
<path d="M0 0 C0.66 0 1.32 0 2 0 C0.82744291 3.33727786 -0.18868404 5.77437487 -3 8 C-3.66 8 -4.32 8 -5 8 C-5.33 6.35 -5.66 4.7 -6 3 C-5.01 2.34 -4.02 1.68 -3 1 C-2.34 1.33 -1.68 1.66 -1 2 C-0.67 1.34 -0.34 0.68 0 0 Z " fill="#575653" transform="translate(220,372)"/>
<path d="M0 0 C0.66 0.33 1.32 0.66 2 1 C1.67 8.59 1.34 16.18 1 24 C0.01 24 -0.98 24 -2 24 C-1.505 22.515 -1.505 22.515 -1 21 C-0.85284801 19.37432921 -0.75278133 17.74413143 -0.68359375 16.11328125 C-0.64169922 15.17548828 -0.59980469 14.23769531 -0.55664062 13.27148438 C-0.51732422 12.29501953 -0.47800781 11.31855469 -0.4375 10.3125 C-0.39431641 9.32443359 -0.35113281 8.33636719 -0.30664062 7.31835938 C-0.20058346 4.87904454 -0.09852286 2.43962887 0 0 Z " fill="#D4524D" transform="translate(194,390)"/>
<path d="M0 0 C0.99 0.33 1.98 0.66 3 1 C3 1.99 3 2.98 3 4 C1.68 3.67 0.36 3.34 -1 3 C-1.268125 3.61875 -1.53625 4.2375 -1.8125 4.875 C-3 7 -3 7 -6 9 C-6.66 8.34 -7.32 7.68 -8 7 C-6.74057614 5.80040625 -5.46704714 4.61560557 -4.1875 3.4375 C-3.12595703 2.44556641 -3.12595703 2.44556641 -2.04296875 1.43359375 C-1.36878906 0.96050781 -0.69460938 0.48742188 0 0 Z " fill="#4A4A48" transform="translate(403,56)"/>
<path d="M0 0 C0.87398438 0.31904297 0.87398438 0.31904297 1.765625 0.64453125 C-4.37723214 6.21595982 -4.37723214 6.21595982 -9.234375 6.64453125 C-9.234375 5.98453125 -9.234375 5.32453125 -9.234375 4.64453125 C-7.84375 3.3203125 -7.84375 3.3203125 -5.984375 1.95703125 C-5.38109375 1.49941406 -4.7778125 1.04179688 -4.15625 0.5703125 C-2.234375 -0.35546875 -2.234375 -0.35546875 0 0 Z " fill="#4F4E4A" transform="translate(255.234375,106.35546875)"/>
<path d="M0 0 C0.598125 0.20625 1.19625 0.4125 1.8125 0.625 C1.1525 2.275 0.4925 3.925 -0.1875 5.625 C-1.8375 5.295 -3.4875 4.965 -5.1875 4.625 C-5.1875 3.635 -5.1875 2.645 -5.1875 1.625 C-2.1875 -0.375 -2.1875 -0.375 0 0 Z " fill="#4D4E4A" transform="translate(396.1875,0.375)"/>
<path d="M0 0 C0.99 0.33 1.98 0.66 3 1 C2.67 1.99 2.34 2.98 2 4 C2.99 4.33 3.98 4.66 5 5 C3.35 5.33 1.7 5.66 0 6 C0 6.66 0 7.32 0 8 C-0.66 8 -1.32 8 -2 8 C-1.125 2.25 -1.125 2.25 0 0 Z " fill="#70726A" transform="translate(423,296)"/>
<path d="M0 0 C0.66 0 1.32 0 2 0 C1.4346089 3.50695293 0.31277274 5.02732613 -2.375 7.3125 C-2.98085938 7.84488281 -3.58671875 8.37726563 -4.2109375 8.92578125 C-4.80132812 9.28027344 -5.39171875 9.63476562 -6 10 C-6.99 9.67 -7.98 9.34 -9 9 C-8.34 9 -7.68 9 -7 9 C-7 8.34 -7 7.68 -7 7 C-5.01739574 5.31267723 -3.0167658 3.64633943 -1 2 C-0.67 1.34 -0.34 0.68 0 0 Z " fill="#4D4D49" transform="translate(296,163)"/>
<path d="M0 0 C0.33 0.99 0.66 1.98 1 3 C-2.3 6.3 -5.6 9.6 -9 13 C-9.66 12.67 -10.32 12.34 -11 12 C-7.37 8.04 -3.74 4.08 0 0 Z " fill="#5C5B5A" transform="translate(334,126)"/>
<path d="M0 0 C0 4.03381023 -1.59573562 5.49433637 -4 8.6875 C-4.7425 9.68136719 -5.485 10.67523438 -6.25 11.69921875 C-7.11625 12.83810547 -7.11625 12.83810547 -8 14 C-8.66 13.67 -9.32 13.34 -10 13 C-3.84965831 3.40546697 -3.84965831 3.40546697 0 0 Z " fill="#4F4B46" transform="translate(62,67)"/>
<path d="M0 0 C0.33 0.66 0.66 1.32 1 2 C-1.38957269 5.24299151 -3.2047869 7.50902342 -7 9 C-6.67 6.69 -6.34 4.38 -6 2 C-5.01 2 -4.02 2 -3 2 C-2.01 1.34 -1.02 0.68 0 0 Z " fill="#626261" transform="translate(413,49)"/>
<path d="M0 0 C0 0.99 0 1.98 0 3 C-0.66 3 -1.32 3 -2 3 C-2.226875 3.556875 -2.45375 4.11375 -2.6875 4.6875 C-4.35896766 7.63246684 -6.55276352 9.68156544 -9 12 C-9.66 11.67 -10.32 11.34 -11 11 C-9.73973202 7.21919607 -8.06453466 6.22704575 -4.9375 3.8125 C-4.01839844 3.09707031 -3.09929687 2.38164062 -2.15234375 1.64453125 C-1.44207031 1.10183594 -0.73179688 0.55914063 0 0 Z " fill="#5B5853" transform="translate(109,18)"/>
<path d="M0 0 C1.98 0 3.96 0 6 0 C6.33 1.32 6.66 2.64 7 4 C6.34 4 5.68 4 5 4 C4.67 5.32 4.34 6.64 4 8 C3.34 8 2.68 8 2 8 C2.33 5.69 2.66 3.38 3 1 C2.01 0.67 1.02 0.34 0 0 Z " fill="#524F4C" transform="translate(220,364)"/>
<path d="M0 0 C-1.47721422 3.45201639 -3.43794001 5.64961936 -6.125 8.25 C-6.84945312 8.95640625 -7.57390625 9.6628125 -8.3203125 10.390625 C-8.87460938 10.92171875 -9.42890625 11.4528125 -10 12 C-10 7.31004828 -6.93901243 5.02186646 -3.875 1.6875 C-2 0 -2 0 0 0 Z " fill="#61605E" transform="translate(166,294)"/>
<path d="M0 0 C0.66 0 1.32 0 2 0 C2 1.98 2 3.96 2 6 C0.02 6.99 0.02 6.99 -2 8 C-3 5 -3 5 -1.6875 2.3125 C-1.130625 1.549375 -0.57375 0.78625 0 0 Z " fill="#696967" transform="translate(454,254)"/>
<path d="M0 0 C0.33 0 0.66 0 1 0 C1 6.27 1 12.54 1 19 C0.34 19 -0.32 19 -1 19 C-1.5625 17.0625 -1.5625 17.0625 -2 15 C-1.67 14.67 -1.34 14.34 -1 14 C-0.76472227 11.65012738 -0.58613583 9.29443961 -0.4375 6.9375 C-0.35371094 5.64714844 -0.26992187 4.35679687 -0.18359375 3.02734375 C-0.12300781 2.02832031 -0.06242188 1.02929688 0 0 Z " fill="#D45450" transform="translate(194,253)"/>
<path d="M0 0 C1.32 0 2.64 0 4 0 C3.82374165 2.37948772 3.30280227 3.70225849 1.59765625 5.37890625 C0.09350908 6.62115486 -1.45129851 7.81376056 -3 9 C-3.33 8.34 -3.66 7.68 -4 7 C-3.34 6.67 -2.68 6.34 -2 6 C-1.27306096 4.02111039 -0.60183749 2.02045442 0 0 Z " fill="#646460" transform="translate(434,25)"/>
<path d="M0 0 C0.33 0.99 0.66 1.98 1 3 C-0.52994792 4.23697917 -2.05989583 5.47395833 -3.58984375 6.7109375 C-5.13266437 7.9666391 -5.13266437 7.9666391 -6 10 C-6.66 10 -7.32 10 -8 10 C-7.67 8.68 -7.34 7.36 -7 6 C-6.01 6 -5.02 6 -4 6 C-3.71125 5.38125 -3.4225 4.7625 -3.125 4.125 C-2 2 -2 2 0 0 Z " fill="#585856" transform="translate(333,4)"/>
<path d="M0 0 C0.66 1.32 1.32 2.64 2 4 C0.02 5.98 -1.96 7.96 -4 10 C-4.66 9.67 -5.32 9.34 -6 9 C-4 6 -2 3 0 0 Z " fill="#53534D" transform="translate(451,400)"/>
<path d="M0 0 C0.66 0 1.32 0 2 0 C2 0.99 2 1.98 2 3 C2.66 3.33 3.32 3.66 4 4 C4.625 6.5625 4.625 6.5625 5 9 C4.01 9.495 4.01 9.495 3 10 C3 8.68 3 7.36 3 6 C2.01 6 1.02 6 0 6 C0 4.02 0 2.04 0 0 Z " fill="#AE4445" transform="translate(413,312)"/>
<path d="M0 0 C-1.38877354 3.35620271 -2.91677965 5.07298728 -6 7 C-6.66 7 -7.32 7 -8 7 C-6.47663111 3.31852519 -4.31953005 0 0 0 Z " fill="#4C4C49" transform="translate(377,15)"/>
<path d="M0 0 C-1.98 0.99 -1.98 0.99 -4 2 C-4 2.99 -4 3.98 -4 5 C-4.66 5 -5.32 5 -6 5 C-6 4.34 -6 3.68 -6 3 C-7.32 2.34 -8.64 1.68 -10 1 C-3.71428571 -1.42857143 -3.71428571 -1.42857143 0 0 Z " fill="#51514D" transform="translate(156,384)"/>
<path d="M0 0 C0.66 0.33 1.32 0.66 2 1 C1.45773019 4.79588866 -0.20127563 6.47211993 -3 9 C-3.66 8.67 -4.32 8.34 -5 8 C-3.38731308 5.28775382 -1.75098126 2.62647188 0 0 Z " fill="#3E3F3B" transform="translate(119,336)"/>
<path d="M0 0 C0.33 0.66 0.66 1.32 1 2 C0.0625 4.125 0.0625 4.125 -1 6 C-1.66 6 -2.32 6 -3 6 C-3.33 7.65 -3.66 9.3 -4 11 C-4.99 10.67 -5.98 10.34 -7 10 C-6.34 9.67 -5.68 9.34 -5 9 C-4.690625 8.05125 -4.38125 7.1025 -4.0625 6.125 C-3.05205433 3.15310098 -2.37002539 1.93911169 0 0 Z " fill="#4E4B47" transform="translate(30,113)"/>
<path d="M0 0 C0.99 0.33 1.98 0.66 3 1 C2.82374165 3.37948772 2.30280227 4.70225849 0.59765625 6.37890625 C-0.90649092 7.62115486 -2.45129851 8.81376056 -4 10 C-4 9.01 -4 8.02 -4 7 C-3.34 7 -2.68 7 -2 7 C-1.34 4.69 -0.68 2.38 0 0 Z " fill="#4F4F4B" transform="translate(248,85)"/>
<path d="M0 0 C0.33 0.99 0.66 1.98 1 3 C-1.64 5.64 -4.28 8.28 -7 11 C-7.66 10.67 -8.32 10.34 -9 10 C-6.22237877 6.39937989 -3.26008643 3.16952847 0 0 Z " fill="#5D5C58" transform="translate(272,64)"/>
<path d="M0 0 C1.03348696 3.10046087 1.17755913 4.05610218 0 7 C-0.99 7.33 -1.98 7.66 -3 8 C-3.36923077 3.44615385 -3.36923077 3.44615385 -1.5 1.1875 C-1.005 0.795625 -0.51 0.40375 0 0 Z " fill="#535350" transform="translate(426,425)"/>
<path d="M0 0 C0.99 0.33 1.98 0.66 3 1 C2.195625 1.763125 1.39125 2.52625 0.5625 3.3125 C-2.16799024 5.79430898 -2.16799024 5.79430898 -3 9 C-3.66 9 -4.32 9 -5 9 C-5.33 8.01 -5.66 7.02 -6 6 C-4.02 4.02 -2.04 2.04 0 0 Z " fill="#74736C" transform="translate(433,418)"/>
<path d="M0 0 C-1.65091778 4.29238623 -4.73754566 6.8793915 -8 10 C-8.66 9.67 -9.32 9.34 -10 9 C-3 0 -3 0 0 0 Z " fill="#565652" transform="translate(178,282)"/>
<path d="M0 0 C0 0.99 0 1.98 0 3 C-1.32781878 4.0073108 -2.66209359 5.00612666 -4 6 C-5.73490246 8.58443323 -5.73490246 8.58443323 -7 11 C-7 7.33815476 -6.080358 5.97194 -4 3 C-1.8125 1.1875 -1.8125 1.1875 0 0 Z " fill="#A63F40" transform="translate(209,199)"/>
<path d="M0 0 C-1.0975223 2.99324263 -1.67682892 3.84610901 -4.625 5.25 C-5.40875 5.4975 -6.1925 5.745 -7 6 C-7 5.01 -7 4.02 -7 3 C-4.46815512 0.64276511 -3.52809907 0 0 0 Z " fill="#4D4D49" transform="translate(236,121)"/>
<path d="M0 0 C0.66 0 1.32 0 2 0 C0.24277009 4.31320068 -2.8062168 7.9031084 -7 10 C-5.32598022 6.04322598 -2.86850715 3.15535787 0 0 Z " fill="#5E5E5B" transform="translate(344,116)"/>
<path d="M0 0 C0 3.58912412 -0.66436554 4.10857029 -3 6.6875 C-3.556875 7.31011719 -4.11375 7.93273438 -4.6875 8.57421875 C-5.120625 9.04472656 -5.55375 9.51523437 -6 10 C-6.33 9.01 -6.66 8.02 -7 7 C-4.69 4.69 -2.38 2.38 0 0 Z " fill="#5A544F" transform="translate(94,31)"/>
<path d="M0 0 C0.66 0 1.32 0 2 0 C2.33 0.99 2.66 1.98 3 3 C1.75 4.5 1.75 4.5 0 6 C-1.32 6 -2.64 6 -4 6 C-4 5.34 -4 4.68 -4 4 C-3.34 4 -2.68 4 -2 4 C-2 3.34 -2 2.68 -2 2 C-1.34 2 -0.68 2 0 2 C0 1.34 0 0.68 0 0 Z " fill="#2F2F2C" transform="translate(69,385)"/>
<path d="M0 0 C0.33 0.66 0.66 1.32 1 2 C1.33 2.33 1.66 2.66 2 3 C2 3.66 2 4.32 2 5 C0.02 5.33 -1.96 5.66 -4 6 C-3.6875 4.125 -3.6875 4.125 -3 2 C-2.01 1.34 -1.02 0.68 0 0 Z " fill="#525252" transform="translate(171,165)"/>
<path d="M0 0 C0.33 0.66 0.66 1.32 1 2 C-1.48952921 4.66735273 -3.63408134 6.55746343 -7 8 C-6.875 6.25 -6.875 6.25 -6 4 C-2.9375 1.75 -2.9375 1.75 0 0 Z " fill="#53524F" transform="translate(244,113)"/>
<path d="M0 0 C0 3.93169105 -1.39419615 5.16427228 -4 8 C-4.66 8 -5.32 8 -6 8 C-6.33 8.66 -6.66 9.32 -7 10 C-6.52727227 5.74545047 -4.03562624 3.80795427 -1 1 C-0.67 0.67 -0.34 0.34 0 0 Z " fill="#7C7C77" transform="translate(422,429)"/>
<path d="M0 0 C0.66 0 1.32 0 2 0 C0.98823563 3.40320742 0.35156418 4.75725331 -2.625 6.8125 C-3.40875 7.204375 -4.1925 7.59625 -5 8 C-5 6.68 -5 5.36 -5 4 C-4.360625 3.71125 -3.72125 3.4225 -3.0625 3.125 C-0.84793921 2.17176549 -0.84793921 2.17176549 0 0 Z " fill="#595956" transform="translate(184,274)"/>
<path d="M0 0 C0.99 0.33 1.98 0.66 3 1 C2.67 1.66 2.34 2.32 2 3 C1.34 3 0.68 3 0 3 C-0.28875 3.639375 -0.5775 4.27875 -0.875 4.9375 C-2 7 -2 7 -4 8 C-3.40072174 4.64404172 -2.15377564 2.62198774 0 0 Z " fill="#71716C" transform="translate(443,269)"/>
<path d="M0 0 C0.66 0.33 1.32 0.66 2 1 C1.505 1.61875 1.01 2.2375 0.5 2.875 C-1.19222773 4.83880904 -1.19222773 4.83880904 -1 7 C-3.31 7 -5.62 7 -8 7 C-7.360625 6.731875 -6.72125 6.46375 -6.0625 6.1875 C-3.66868314 5.11332248 -3.66868314 5.11332248 -3 2 C-2.01 1.34 -1.02 0.68 0 0 Z " fill="#A46C59" transform="translate(279,181)"/>
<path d="M0 0 C0.66 0 1.32 0 2 0 C1.625 2.4375 1.625 2.4375 1 5 C0.01 5.495 0.01 5.495 -1 6 C-1.66 5.67 -2.32 5.34 -3 5 C-2.67 4.01 -2.34 3.02 -2 2 C-1.34 2 -0.68 2 0 2 C0 1.34 0 0.68 0 0 Z M-2 6 C-1.67 6.66 -1.34 7.32 -1 8 C-1.66 7.67 -2.32 7.34 -3 7 C-2.67 6.67 -2.34 6.34 -2 6 Z " fill="#474644" transform="translate(302,69)"/>
<path d="M0 0 C0.99 0.33 1.98 0.66 3 1 C2.34 1 1.68 1 1 1 C0.7525 1.804375 0.505 2.60875 0.25 3.4375 C-1 6 -1 6 -3.125 6.8125 C-3.74375 6.874375 -4.3625 6.93625 -5 7 C-4.67 5.68 -4.34 4.36 -4 3 C-2.68 2.67 -1.36 2.34 0 2 C0 1.34 0 0.68 0 0 Z " fill="#545452" transform="translate(383,8)"/>
<path d="M0 0 C0.66 1.32 1.32 2.64 2 4 C0.02253397 4.73080266 -1.98072489 5.39421747 -4 6 C-4.66 5.67 -5.32 5.34 -6 5 C-4.02 3.35 -2.04 1.7 0 0 Z " fill="#51514E" transform="translate(280,86)"/>
<path d="M0 0 C0.66 1.32 1.32 2.64 2 4 C1.01 5.485 1.01 5.485 0 7 C-0.99 6.01 -1.98 5.02 -3 4 C-2.01 2.68 -1.02 1.36 0 0 Z " fill="#312E29" transform="translate(86,39)"/>
<path d="M0 0 C0.33 0.66 0.66 1.32 1 2 C0.67 2.99 0.34 3.98 0 5 C-0.66 5 -1.32 5 -2 5 C-2 5.99 -2 6.98 -2 8 C-2.66 7.67 -3.32 7.34 -4 7 C-4 4 -4 4 -2 1.8125 C-1.34 1.214375 -0.68 0.61625 0 0 Z " fill="#4E4F4B" transform="translate(439,412)"/>
<path d="M0 0 C2.64 0.33 5.28 0.66 8 1 C4.77208445 3.1519437 3.71599191 3.20086443 0 3 C0 2.01 0 1.02 0 0 Z " fill="#AF3F39" transform="translate(225,335)"/>
<path d="M0 0 C0.66 0.33 1.32 0.66 2 1 C-0.25 3.5 -0.25 3.5 -3 6 C-4.32 6 -5.64 6 -7 6 C-4.80090595 3.80090595 -2.43929746 1.92576115 0 0 Z " fill="#434342" transform="translate(140,318)"/>
<path d="M0 0 C0.66 0 1.32 0 2 0 C1.67 0.99 1.34 1.98 1 3 C-1.5625 4.1875 -1.5625 4.1875 -4 5 C-4 5.66 -4 6.32 -4 7 C-4.66 6.67 -5.32 6.34 -6 6 C-4 4 -2 2 0 0 Z " fill="#51504C" transform="translate(195,150)"/>
<path d="M0 0 C0.66 0 1.32 0 2 0 C0.44499019 3.81684226 -2.03595495 6.19195732 -5 9 C-5 8.01 -5 7.02 -5 6 C-4.34 6 -3.68 6 -3 6 C-2.690625 5.195625 -2.38125 4.39125 -2.0625 3.5625 C-1 1 -1 1 0 0 Z " fill="#4A4844" transform="translate(193,141)"/>
<path d="M0 0 C0.66 0 1.32 0 2 0 C0.4169423 4.2742558 -2.50568404 6.26531794 -6 9 C-4.4722133 5.56247993 -2.49818944 2.81046312 0 0 Z " fill="#575553" transform="translate(311,25)"/>
<path d="M0 0 C-1.49097658 3.7952131 -3.75700849 5.61042731 -7 8 C-6.44414399 4.1090079 -4.34122117 0 0 0 Z " fill="#5C5B56" transform="translate(422,433)"/>
<path d="M0 0 C0.99 0 1.98 0 3 0 C2.75 1.875 2.75 1.875 2 4 C-0.0625 5.25 -0.0625 5.25 -2 6 C-1.34 4.02 -0.68 2.04 0 0 Z " fill="#51524C" transform="translate(177,429)"/>
<path d="M0 0 C0.99 0 1.98 0 3 0 C3.33 0.99 3.66 1.98 4 3 C1.525 4.485 1.525 4.485 -1 6 C-1.33 5.34 -1.66 4.68 -2 4 C-1.34 4 -0.68 4 0 4 C-0.33 3.01 -0.66 2.02 -1 1 C-0.67 0.67 -0.34 0.34 0 0 Z " fill="#AF3C3D" transform="translate(401,427)"/>
<path d="M0 0 C1.98 0 3.96 0 6 0 C5.01 1.485 5.01 1.485 4 3 C1.375 3.1875 1.375 3.1875 -1 3 C-0.67 2.01 -0.34 1.02 0 0 Z " fill="#444442" transform="translate(52,412)"/>
<path d="M0 0 C1.32 0.66 2.64 1.32 4 2 C3.01 2.99 2.02 3.98 1 5 C0.01 4.67 -0.98 4.34 -2 4 C-1.34 2.68 -0.68 1.36 0 0 Z " fill="#403F3D" transform="translate(285,172)"/>
<path d="M0 0 C0.66 0 1.32 0 2 0 C1.6875 1.9375 1.6875 1.9375 1 4 C0.01 4.33 -0.98 4.66 -2 5 C-2.33 5.66 -2.66 6.32 -3 7 C-2.25 2.25 -2.25 2.25 0 0 Z " fill="#464340" transform="translate(45,89)"/>
<path d="M0 0 C0.33 0.66 0.66 1.32 1 2 C-0.3125 4 -0.3125 4 -2 6 C-2.99 6 -3.98 6 -5 6 C-4.67 5.01 -4.34 4.02 -4 3 C-3.34 3 -2.68 3 -2 3 C-2 2.34 -2 1.68 -2 1 C-1.34 0.67 -0.68 0.34 0 0 Z " fill="#52514E" transform="translate(296,74)"/>
<path d="M0 0 C0.66 0 1.32 0 2 0 C0.54744301 3.82946843 -1.42895561 5.12050295 -5 7 C-4.67 6.01 -4.34 5.02 -4 4 C-3.34 4 -2.68 4 -2 4 C-1.34 2.68 -0.68 1.36 0 0 Z " fill="#747672" transform="translate(447,15)"/>
<path d="" fill="#000000" transform="translate(0,0)"/>
<path d="" fill="#010101" transform="translate(0,0)"/>
<path d="" fill="#010101" transform="translate(0,0)"/>
<path d="" fill="#010101" transform="translate(0,0)"/>
<path d="" fill="#010101" transform="translate(0,0)"/>
<path d="" fill="#020101" transform="translate(0,0)"/>
<path d="" fill="#010101" transform="translate(0,0)"/>
<path d="" fill="#010101" transform="translate(0,0)"/>
<path d="" fill="#010101" transform="translate(0,0)"/>
<path d="" fill="#020101" transform="translate(0,0)"/>
<path d="" fill="#010000" transform="translate(0,0)"/>
<path d="" fill="#010101" transform="translate(0,0)"/>
<path d="" fill="#010101" transform="translate(0,0)"/>
<path d="" fill="#010101" transform="translate(0,0)"/>
<path d="" fill="#010000" transform="translate(0,0)"/>
<path d="" fill="#010000" transform="translate(0,0)"/>
<path d="" fill="#010101" transform="translate(0,0)"/>
<path d="" fill="#000000" transform="translate(0,0)"/>
<path d="" fill="#010101" transform="translate(0,0)"/>
<path d="" fill="#010101" transform="translate(0,0)"/>
<path d="" fill="#000000" transform="translate(0,0)"/>
<path d="" fill="#000000" transform="translate(0,0)"/>
<path d="" fill="#000000" transform="translate(0,0)"/>
<path d="" fill="#010101" transform="translate(0,0)"/>
<path d="" fill="#010101" transform="translate(0,0)"/>
<path d="" fill="#010101" transform="translate(0,0)"/>
<path d="" fill="#010101" transform="translate(0,0)"/>
<path d="" fill="#000000" transform="translate(0,0)"/>
<path d="" fill="#000000" transform="translate(0,0)"/>
<path d="" fill="#000000" transform="translate(0,0)"/>
<path d="" fill="#000000" transform="translate(0,0)"/>
<path d="" fill="#010000" transform="translate(0,0)"/>
<path d="" fill="#010101" transform="translate(0,0)"/>
<path d="" fill="#000000" transform="translate(0,0)"/>
<path d="" fill="#000000" transform="translate(0,0)"/>
<path d="" fill="#010101" transform="translate(0,0)"/>
<path d="" fill="#020101" transform="translate(0,0)"/>
<path d="" fill="#000000" transform="translate(0,0)"/>
<path d="" fill="#010000" transform="translate(0,0)"/>
<path d="" fill="#010101" transform="translate(0,0)"/>
<path d="" fill="#010101" transform="translate(0,0)"/>
<path d="" fill="#010000" transform="translate(0,0)"/>
<path d="" fill="#010000" transform="translate(0,0)"/>
<path d="" fill="#010000" transform="translate(0,0)"/>
<path d="" fill="#020101" transform="translate(0,0)"/>
<path d="" fill="#010101" transform="translate(0,0)"/>
<path d="" fill="#020101" transform="translate(0,0)"/>
<path d="" fill="#000000" transform="translate(0,0)"/>
<path d="" fill="#010101" transform="translate(0,0)"/>
<path d="" fill="#000000" transform="translate(0,0)"/>
<path d="" fill="#000000" transform="translate(0,0)"/>
<path d="" fill="#010101" transform="translate(0,0)"/>
<path d="" fill="#010101" transform="translate(0,0)"/>
<path d="" fill="#010000" transform="translate(0,0)"/>
<path d="" fill="#010000" transform="translate(0,0)"/>
<path d="" fill="#010101" transform="translate(0,0)"/>
<path d="" fill="#000000" transform="translate(0,0)"/>
<path d="" fill="#010100" transform="translate(0,0)"/>
<path d="" fill="#010000" transform="translate(0,0)"/>
<path d="" fill="#010101" transform="translate(0,0)"/>
<path d="" fill="#010101" transform="translate(0,0)"/>
<path d="" fill="#000000" transform="translate(0,0)"/>
<path d="" fill="#010101" transform="translate(0,0)"/>
<path d="" fill="#000000" transform="translate(0,0)"/>
<path d="" fill="#010101" transform="translate(0,0)"/>
<path d="" fill="#000000" transform="translate(0,0)"/>
<path d="" fill="#010101" transform="translate(0,0)"/>
<path d="" fill="#010101" transform="translate(0,0)"/>
<path d="" fill="#000000" transform="translate(0,0)"/>
<path d="" fill="#010101" transform="translate(0,0)"/>
<path d="" fill="#000000" transform="translate(0,0)"/>
<path d="" fill="#010101" transform="translate(0,0)"/>
<path d="" fill="#000000" transform="translate(0,0)"/>
<path d="" fill="#000000" transform="translate(0,0)"/>
<path d="" fill="#010101" transform="translate(0,0)"/>
<path d="" fill="#010101" transform="translate(0,0)"/>
<path d="" fill="#010101" transform="translate(0,0)"/>
<path d="" fill="#010101" transform="translate(0,0)"/>
<path d="" fill="#000000" transform="translate(0,0)"/>
<path d="" fill="#010101" transform="translate(0,0)"/>
<path d="" fill="#000000" transform="translate(0,0)"/>
<path d="" fill="#010101" transform="translate(0,0)"/>
<path d="" fill="#010101" transform="translate(0,0)"/>
<path d="" fill="#010101" transform="translate(0,0)"/>
<path d="" fill="#000000" transform="translate(0,0)"/>
<path d="" fill="#000000" transform="translate(0,0)"/>
<path d="" fill="#000000" transform="translate(0,0)"/>
<path d="" fill="#010101" transform="translate(0,0)"/>
<path d="" fill="#000000" transform="translate(0,0)"/>
<path d="" fill="#010000" transform="translate(0,0)"/>
<path d="" fill="#010101" transform="translate(0,0)"/>
<path d="" fill="#000000" transform="translate(0,0)"/>
<path d="" fill="#010101" transform="translate(0,0)"/>
<path d="" fill="#000000" transform="translate(0,0)"/>
<path d="" fill="#000000" transform="translate(0,0)"/>
<path d="" fill="#010101" transform="translate(0,0)"/>
<path d="" fill="#000000" transform="translate(0,0)"/>
<path d="" fill="#010101" transform="translate(0,0)"/>
<path d="" fill="#010100" transform="translate(0,0)"/>
<path d="" fill="#010101" transform="translate(0,0)"/>
<path d="" fill="#000000" transform="translate(0,0)"/>
<path d="" fill="#000000" transform="translate(0,0)"/>
<path d="" fill="#010101" transform="translate(0,0)"/>
<path d="" fill="#010101" transform="translate(0,0)"/>
<path d="" fill="#000000" transform="translate(0,0)"/>
<path d="" fill="#010101" transform="translate(0,0)"/>
<path d="" fill="#000000" transform="translate(0,0)"/>
<path d="" fill="#000000" transform="translate(0,0)"/>
<path d="" fill="#010100" transform="translate(0,0)"/>
<path d="" fill="#010101" transform="translate(0,0)"/>
<path d="" fill="#010101" transform="translate(0,0)"/>
<path d="" fill="#010101" transform="translate(0,0)"/>
<path d="" fill="#010101" transform="translate(0,0)"/>
<path d="" fill="#010101" transform="translate(0,0)"/>
<path d="" fill="#000000" transform="translate(0,0)"/>
<path d="" fill="#000000" transform="translate(0,0)"/>
<path d="" fill="#010100" transform="translate(0,0)"/>
<path d="" fill="#010101" transform="translate(0,0)"/>
<path d="" fill="#010101" transform="translate(0,0)"/>
<path d="" fill="#010101" transform="translate(0,0)"/>
<path d="" fill="#010101" transform="translate(0,0)"/>
<path d="" fill="#000000" transform="translate(0,0)"/>
<path d="" fill="#010101" transform="translate(0,0)"/>
<path d="" fill="#010101" transform="translate(0,0)"/>
<path d="" fill="#010101" transform="translate(0,0)"/>
<path d="" fill="#010101" transform="translate(0,0)"/>
<path d="" fill="#000000" transform="translate(0,0)"/>
<path d="" fill="#000000" transform="translate(0,0)"/>
<path d="" fill="#010101" transform="translate(0,0)"/>
<path d="" fill="#000000" transform="translate(0,0)"/>
<path d="" fill="#010000" transform="translate(0,0)"/>
</svg>
